<svg xmlns="http://www.w3.org/2000/svg" width="31.664" height="31.664" viewBox="0 0 31.664 31.664">
    <defs>
        <style>
            .cls-1{fill:#475993}
        </style>
    </defs>
    <path id="facebook" d="M27.4 0H4.269A4.267 4.267 0 0 0 0 4.267V27.4a4.267 4.267 0 0 0 4.267 4.267h11.41l.023-11.318h-2.94a.694.694 0 0 1-.694-.691l-.014-3.647a.694.694 0 0 1 .694-.7h2.934V11.79c0-4.09 2.5-6.317 6.146-6.317h2.994a.694.694 0 0 1 .694.694v3.076a.694.694 0 0 1-.693.694H22.98c-1.984 0-2.368.943-2.368 2.326v3.051h4.36a.694.694 0 0 1 .689.775l-.432 3.647a.694.694 0 0 1-.689.612h-3.909l-.019 11.315H27.4a4.267 4.267 0 0 0 4.266-4.263V4.267A4.267 4.267 0 0 0 27.4 0z" class="cls-1" transform="translate(-.002)"/>
</svg>
