<svg id="study_1_" data-name="study (1)" xmlns="http://www.w3.org/2000/svg" width="49.981" height="49.981" viewBox="0 0 49.981 49.981">
  <g id="Group_2" data-name="Group 2" transform="translate(16.205)">
    <g id="Group_1" data-name="Group 1">
      <path id="Path_454" data-name="Path 454" d="M174.786,0a8.835,8.835,0,1,0,8.786,8.883A8.879,8.879,0,0,0,174.786,0Z" transform="translate(-166)" fill="#79869c"/>
    </g>
  </g>
  <g id="Group_4" data-name="Group 4" transform="translate(16.186 17.669)">
    <g id="Group_3" data-name="Group 3">
      <path id="Path_455" data-name="Path 455" d="M177.543,181h-5.857a13.131,13.131,0,0,0-5.876,1.442,36.744,36.744,0,0,1,8.8,3.648,36.747,36.747,0,0,1,8.8-3.648A13.131,13.131,0,0,0,177.543,181Z" transform="translate(-165.81 -181)" fill="#79869c"/>
    </g>
  </g>
  <g id="Group_6" data-name="Group 6" transform="translate(44.124 26.455)">
    <g id="Group_5" data-name="Group 5">
      <path id="Path_456" data-name="Path 456" d="M454.929,271A2.929,2.929,0,0,0,452,273.929v5.857a2.929,2.929,0,1,0,5.857,0v-5.857A2.928,2.928,0,0,0,454.929,271Z" transform="translate(-452 -271)" fill="#79869c"/>
    </g>
  </g>
  <g id="Group_8" data-name="Group 8" transform="translate(0 26.455)">
    <g id="Group_7" data-name="Group 7">
      <path id="Path_457" data-name="Path 457" d="M2.929,271A2.929,2.929,0,0,0,0,273.929v5.857a2.929,2.929,0,1,0,5.857,0v-5.857A2.929,2.929,0,0,0,2.929,271Z" transform="translate(0 -271)" fill="#79869c"/>
    </g>
  </g>
  <g id="Group_10" data-name="Group 10" transform="translate(2.929 20.598)">
    <g id="Group_9" data-name="Group 9">
      <path id="Path_458" data-name="Path 458" d="M31.464,211A1.463,1.463,0,0,0,30,212.464v1.464a5.863,5.863,0,0,1,5.857,5.857v5.857A5.863,5.863,0,0,1,30,231.5v1.464a1.463,1.463,0,0,0,1.464,1.464c7.507,0,13.509,2.371,19.133,5.955v-24.64A36.934,36.934,0,0,0,31.464,211Z" transform="translate(-30 -211)" fill="#79869c"/>
    </g>
  </g>
  <g id="Group_12" data-name="Group 12" transform="translate(26.455 20.598)">
    <g id="Group_11" data-name="Group 11">
      <path id="Path_459" data-name="Path 459" d="M291.6,213.929v-1.464A1.463,1.463,0,0,0,290.133,211,36.934,36.934,0,0,0,271,215.744v24.64c5.624-3.584,11.626-5.955,19.133-5.955a1.463,1.463,0,0,0,1.464-1.464V231.5a5.863,5.863,0,0,1-5.857-5.857v-5.857A5.863,5.863,0,0,1,291.6,213.929Z" transform="translate(-271 -211)" fill="#79869c"/>
    </g>
  </g>
</svg>
