<svg xmlns="http://www.w3.org/2000/svg" xmlns:xlink="http://www.w3.org/1999/xlink" width="1012.356" height="556.802" viewBox="0 0 1012.356 556.802">
  <defs>
    <linearGradient id="linear-gradient" x1="-0.964" y1="0.5" x2="1.464" y2="0.5" gradientUnits="objectBoundingBox">
      <stop offset="0" stop-color="#f95830"/>
      <stop offset="1" stop-color="#e04037"/>
    </linearGradient>
    <linearGradient id="linear-gradient-2" x1="-1.139" y1="0.5" x2="1.507" y2="0.5" xlink:href="#linear-gradient"/>
  </defs>
  <g id="dc-img" transform="translate(0 -1.01)">
    <path id="Path_1" data-name="Path 1" d="M0,1212.587H195.713V988.67H0Z" transform="translate(0 -912.499)" fill="#fff"/>
    <path id="Path_2" data-name="Path 2" d="M371.58,1304.406h89.63v-3.686H371.58Z" transform="translate(-342.893 -1200.457)" fill="#d9e1e4"/>
    <path id="Path_3" data-name="Path 3" d="M371.58,1202.627h29.036v-3.687H371.58Z" transform="translate(-342.893 -1106.535)" fill="#d9e1e4"/>
    <path id="Path_4" data-name="Path 4" d="M415.925,1447.274v.084H555.794v158.491H416.01V1447.274h-.085v0h-.085v158.743H555.962V1447.19H415.84v.084Z" transform="translate(-383.736 -1332.859)" fill="#bac2c6"/>
    <path id="Path_5" data-name="Path 5" d="M416.94,3208.888H556.893v-.168H416.94Z" transform="translate(-384.751 -2956.784)" fill="#bac2c6"/>
    <path id="Path_6" data-name="Path 6" d="M416.94,2915.307H556.893v-.167H416.94Z" transform="translate(-384.751 -2686.271)" fill="#bac2c6"/>
    <path id="Path_7" data-name="Path 7" d="M416.94,2621.718H556.893v-.168H416.94Z" transform="translate(-384.751 -2415.749)" fill="#bac2c6"/>
    <path id="Path_8" data-name="Path 8" d="M416.94,2328.128H556.893v-.168H416.94Z" transform="translate(-384.751 -2145.226)" fill="#bac2c6"/>
    <path id="Path_9" data-name="Path 9" d="M416.94,2034.528H556.893v-.168H416.94Z" transform="translate(-384.751 -1874.695)" fill="#bac2c6"/>
    <path id="Path_10" data-name="Path 10" d="M416.94,1740.959H556.893v-.169H416.94Z" transform="translate(-384.751 -1604.191)" fill="#bac2c6"/>
    <path id="Path_11" data-name="Path 11" d="M1624.37,1606.94h.169V1448.28h-.169Z" transform="translate(-1498.965 -1333.863)" fill="#bac2c6"/>
    <path id="Path_12" data-name="Path 12" d="M1020.1,1606.94h.169V1448.28h-.169Z" transform="translate(-941.346 -1333.863)" fill="#bac2c6"/>
    <path id="Path_13" data-name="Path 13" d="M329.631,1447.51l-7.241,7.239.119.119,7.239-7.239Z" transform="translate(-297.501 -1333.929)" fill="#bac2c6"/>
    <path id="Path_14" data-name="Path 14" d="M329.631,1741.12l-7.241,7.235.119.119,7.239-7.236Z" transform="translate(-297.501 -1604.464)" fill="#bac2c6"/>
    <path id="Path_15" data-name="Path 15" d="M329.631,2034.679l-7.241,7.239.119.118,7.239-7.237Z" transform="translate(-297.501 -1874.952)" fill="#bac2c6"/>
    <path id="Path_16" data-name="Path 16" d="M329.631,2328.27l-7.241,7.239.119.119,7.239-7.239Z" transform="translate(-297.501 -2145.47)" fill="#bac2c6"/>
    <path id="Path_17" data-name="Path 17" d="M329.631,2621.87l-7.241,7.238.119.121,7.239-7.239Z" transform="translate(-297.501 -2415.996)" fill="#bac2c6"/>
    <path id="Path_18" data-name="Path 18" d="M329.631,2915.459l-7.241,7.238.119.119,7.239-7.239Z" transform="translate(-297.501 -2686.512)" fill="#bac2c6"/>
    <path id="Path_19" data-name="Path 19" d="M329.631,3209.04l-7.241,7.237.119.119,7.239-7.238Z" transform="translate(-297.501 -2957.02)" fill="#bac2c6"/>
    <path id="Path_20" data-name="Path 20" d="M224.181,3016.8v-.342l.436-.424c1.052-1,1.526-1.532,1.533-2.152a.734.734,0,0,0-.816-.8,1.4,1.4,0,0,0-.875.349l-.178-.393a1.807,1.807,0,0,1,1.165-.418,1.158,1.158,0,0,1,1.26,1.2c0,.76-.551,1.374-1.417,2.209l-.33.3v.013h1.849v.463H224.18Z" transform="translate(-206.873 -2776.062)" fill="#bac2c6"/>
    <path id="Path_21" data-name="Path 21" d="M266.067,3014.756c0,1.069.329,1.678.836,1.678.569,0,.842-.665.842-1.716,0-1.013-.259-1.679-.835-1.679-.488,0-.842.6-.842,1.717Zm2.235-.063c0,1.4-.52,2.171-1.431,2.171-.8,0-1.347-.754-1.361-2.114,0-1.38.6-2.14,1.431-2.14.866,0,1.361.771,1.361,2.084Z" transform="translate(-245.012 -2776.052)" fill="#bac2c6"/>
    <path id="Path_22" data-name="Path 22" d="M224.1,2724.645a1.871,1.871,0,0,0,.913.26c.715,0,.937-.457.93-.8-.005-.575-.524-.823-1.062-.823h-.31v-.417h.31c.4,0,.918-.209.918-.7,0-.329-.209-.621-.722-.621a1.511,1.511,0,0,0-.824.273l-.146-.406a1.954,1.954,0,0,1,1.075-.316c.811,0,1.178.481,1.178.981a1.022,1.022,0,0,1-.76.969v.014a1.069,1.069,0,0,1,.918,1.056c0,.659-.511,1.235-1.5,1.235a2.074,2.074,0,0,1-1.071-.279l.151-.43Z" transform="translate(-206.66 -2507.449)" fill="#bac2c6"/>
    <path id="Path_23" data-name="Path 23" d="M266.067,2723.256c0,1.069.329,1.678.836,1.678.569,0,.842-.664.842-1.714,0-1.013-.259-1.678-.835-1.678-.488,0-.842.594-.842,1.716Zm2.235-.063c0,1.4-.52,2.171-1.431,2.171-.8,0-1.347-.752-1.361-2.114,0-1.381.6-2.14,1.431-2.14C267.807,2721.11,268.3,2721.882,268.3,2723.193Z" transform="translate(-245.012 -2507.458)" fill="#bac2c6"/>
    <path id="Path_24" data-name="Path 24" d="M223.642,2433.076V2431.7c0-.216.007-.432.018-.646h-.018c-.126.241-.227.418-.342.607l-1.006,1.4v.012h1.348Zm0,1.558v-1.121H221.73v-.366l1.837-2.628h.6v2.557h.577v.438h-.577v1.121h-.526Z" transform="translate(-204.612 -2239.703)" fill="#bac2c6"/>
    <path id="Path_25" data-name="Path 25" d="M266.067,2431.746c0,1.07.329,1.678.836,1.678.569,0,.842-.665.842-1.716,0-1.013-.259-1.678-.835-1.678-.488,0-.842.6-.842,1.716Zm2.235-.062c0,1.4-.52,2.171-1.431,2.171-.8,0-1.347-.753-1.361-2.115,0-1.381.6-2.14,1.431-2.14C267.807,2429.6,268.3,2430.372,268.3,2431.684Z" transform="translate(-245.012 -2238.855)" fill="#bac2c6"/>
    <path id="Path_26" data-name="Path 26" d="M226.416,2139.478h-1.57l-.159,1.057a2.117,2.117,0,0,1,.335-.025,1.736,1.736,0,0,1,.886.221,1.17,1.17,0,0,1,.59,1.057,1.428,1.428,0,0,1-1.533,1.406,2,2,0,0,1-1.025-.253l.139-.424a1.843,1.843,0,0,0,.88.229.907.907,0,0,0,.974-.892c-.005-.533-.361-.913-1.184-.913a4.25,4.25,0,0,0-.569.044l.264-1.974h1.97v.468Z" transform="translate(-206.651 -1971.101)" fill="#bac2c6"/>
    <path id="Path_27" data-name="Path 27" d="M266.067,2140.246c0,1.07.329,1.678.836,1.678.569,0,.842-.665.842-1.714,0-1.013-.259-1.678-.835-1.678-.488,0-.842.594-.842,1.716Zm2.235-.063c0,1.4-.52,2.171-1.431,2.171-.8,0-1.347-.753-1.361-2.115,0-1.38.6-2.139,1.431-2.139C267.807,2138.1,268.3,2138.872,268.3,2140.183Z" transform="translate(-245.012 -1970.261)" fill="#bac2c6"/>
    <path id="Path_28" data-name="Path 28" d="M225.568,1849.5a.836.836,0,0,0-.848-.944.917.917,0,0,0-.8.506l-.063.246c.012.679.324,1.178.906,1.178.48,0,.8-.4.8-.987Zm.158-2.374a2.019,2.019,0,0,0-.417.025,1.671,1.671,0,0,0-1.431,1.462h.019a1.254,1.254,0,0,1,2.235.855,1.376,1.376,0,0,1-1.366,1.449c-.881,0-1.456-.683-1.456-1.753a2.594,2.594,0,0,1,.7-1.856,2.239,2.239,0,0,1,1.318-.607,2.632,2.632,0,0,1,.4-.032v.457Z" transform="translate(-206.07 -1701.733)" fill="#bac2c6"/>
    <path id="Path_29" data-name="Path 29" d="M266.067,1848.736c0,1.069.329,1.678.836,1.678.569,0,.842-.664.842-1.715,0-1.013-.259-1.678-.835-1.678-.488,0-.842.594-.842,1.716Zm2.235-.063c0,1.4-.52,2.171-1.431,2.171-.8,0-1.347-.752-1.361-2.114,0-1.38.6-2.139,1.431-2.139C267.807,1846.59,268.3,1847.362,268.3,1848.673Z" transform="translate(-245.012 -1701.659)" fill="#bac2c6"/>
    <path id="Path_30" data-name="Path 30" d="M227.776,1556v.367l-1.793,3.749h-.576l1.786-3.641v-.012H225.18V1556Z" transform="translate(-207.796 -1433.905)" fill="#bac2c6"/>
    <path id="Path_31" data-name="Path 31" d="M266.067,1557.236c0,1.07.329,1.678.836,1.678.569,0,.842-.665.842-1.716,0-1.013-.259-1.678-.835-1.678-.488,0-.842.6-.842,1.716Zm2.235-.063c0,1.4-.52,2.171-1.431,2.171-.8,0-1.347-.754-1.361-2.115,0-1.38.6-2.14,1.431-2.14C267.807,1555.09,268.3,1555.862,268.3,1557.173Z" transform="translate(-245.012 -1433.066)" fill="#bac2c6"/>
    <path id="Path_32" data-name="Path 32" d="M1626.56,1765.475h46.483v-22.5H1626.56Z" transform="translate(-1500.986 -1606.108)" fill="#f3f8fd"/>
    <path id="Path_33" data-name="Path 33" d="M2228.744,1764.554v-.084h-.084v-22.5h.084v22.579Z" transform="translate(-2056.602 -1605.103)" fill="#d2d7d9"/>
    <path id="Path_34" data-name="Path 34" d="M511.162,1765.475H464.68v-22.5h46.482Zm-46.651,0H418.03v-22.5h46.481Z" transform="translate(-385.757 -1606.108)" fill="#f3f8fd"/>
    <path id="Path_35" data-name="Path 35" d="M417.025,1765.475h-.085v-22.462l.034-.034h.051Z" transform="translate(-384.751 -1606.108)" fill="#d2d7d9"/>
    <path id="Path_36" data-name="Path 36" d="M556.893,2034.435H510.326v-.085h46.568Zm-46.737,0H463.674v-.085h46.482Zm-46.651,0H416.94v-.085h46.565Z" transform="translate(-384.751 -1874.686)" fill="#d2d7d9"/>
    <path id="Path_37" data-name="Path 37" d="M556.893,1741.965H510.326v-.085h46.568Zm-46.737,0H463.674v-.085h46.482Zm-46.651,0H416.974l.025-.025-.059-.059h46.565v.085Z" transform="translate(-384.751 -1605.196)" fill="#d2d7d9"/>
    <path id="Path_38" data-name="Path 38" d="M1624.539,1764.554h-.169V1741.89h.169Z" transform="translate(-1498.965 -1605.103)" fill="#d2d7d9"/>
    <path id="Path_39" data-name="Path 39" d="M1020.269,1764.554h-.169V1741.89h.169Z" transform="translate(-941.346 -1605.103)" fill="#d2d7d9"/>
    <path id="Path_40" data-name="Path 40" d="M416.94,1742.017v-.118l.059.059-.025.025Z" transform="translate(-384.751 -1605.214)" fill="#d2d7d9"/>
    <path id="Path_41" data-name="Path 41" d="M1626.56,2352.638h46.483v-22.5H1626.56Z" transform="translate(-1500.986 -2147.1)" fill="#f3f8fd"/>
    <path id="Path_42" data-name="Path 42" d="M2228.744,2351.7v-.083h-.084v-22.5h.084v22.58Z" transform="translate(-2056.602 -2146.085)" fill="#d2d7d9"/>
    <path id="Path_43" data-name="Path 43" d="M1673.128,2621.633H1626.56v-.082h46.568Z" transform="translate(-1500.986 -2415.749)" fill="#d2d7d9"/>
    <path id="Path_44" data-name="Path 44" d="M1673.128,2329.125H1626.56v-.085h46.568Z" transform="translate(-1500.986 -2146.222)" fill="#d2d7d9"/>
    <path id="Path_45" data-name="Path 45" d="M1022.29,2352.638h46.482v-22.5H1022.29Z" transform="translate(-943.367 -2147.1)" fill="#f3f8fd"/>
    <path id="Path_46" data-name="Path 46" d="M1022.29,2621.633h46.482v-.082H1022.29Z" transform="translate(-943.367 -2415.749)" fill="#d2d7d9"/>
    <path id="Path_47" data-name="Path 47" d="M1022.29,2329.125h46.482v-.085H1022.29Z" transform="translate(-943.367 -2146.222)" fill="#d2d7d9"/>
    <path id="Path_48" data-name="Path 48" d="M418.04,2352.638h46.48v-22.5H418.04Z" transform="translate(-385.766 -2147.1)" fill="#f3f8fd"/>
    <path id="Path_49" data-name="Path 49" d="M417.025,2352.638h-.085v-22.466l.034-.032h.051Z" transform="translate(-384.751 -2147.1)" fill="#d2d7d9"/>
    <path id="Path_50" data-name="Path 50" d="M463.505,2621.633H416.94v-.082h46.565Z" transform="translate(-384.751 -2415.749)" fill="#d2d7d9"/>
    <path id="Path_51" data-name="Path 51" d="M463.505,2329.125H416.974l.025-.025-.059-.058v0h46.565Z" transform="translate(-384.751 -2146.222)" fill="#d2d7d9"/>
    <path id="Path_52" data-name="Path 52" d="M1624.539,2351.7h-.169V2329.04h.169Z" transform="translate(-1498.965 -2146.085)" fill="#d2d7d9"/>
    <path id="Path_53" data-name="Path 53" d="M1020.269,2351.7h-.169V2329.04h.169Z" transform="translate(-941.346 -2146.085)" fill="#d2d7d9"/>
    <path id="Path_54" data-name="Path 54" d="M416.94,2329.157v-.117l.059.06-.025.025Z" transform="translate(-384.751 -2146.221)" fill="#d2d7d9"/>
    <path id="Path_55" data-name="Path 55" d="M557.824,2939.807H511.341v-22.5h46.483Zm-46.652,0H464.69v-22.5h46.482Zm-46.651,0H418.04v-22.5h46.481Z" transform="translate(-385.766 -2688.101)" fill="#f3f8fd"/>
    <path id="Path_56" data-name="Path 56" d="M556.884,2938.9v-.085H556.8v-22.5h.085V2938.9Zm-139.869-.085h-.085v-22.463l.034-.034h.05v22.5Z" transform="translate(-384.742 -2687.104)" fill="#d2d7d9"/>
    <path id="Path_57" data-name="Path 57" d="M556.893,3208.8H510.326v-.085h46.568Zm-46.737,0H463.674v-.085h46.482Zm-46.651,0H416.94v-.085h46.565Z" transform="translate(-384.751 -2956.785)" fill="#d2d7d9"/>
    <path id="Path_58" data-name="Path 58" d="M556.893,2916.313H510.326v-.083h46.568Zm-46.737,0H463.674v-.083h46.482Zm-46.651,0H416.974l.025-.024-.059-.059h46.565Z" transform="translate(-384.751 -2687.275)" fill="#d2d7d9"/>
    <path id="Path_59" data-name="Path 59" d="M1624.539,2938.9h-.169V2916.23h.169Z" transform="translate(-1498.965 -2687.104)" fill="#d2d7d9"/>
    <path id="Path_60" data-name="Path 60" d="M1020.269,2938.9h-.169V2916.23h.169Z" transform="translate(-941.346 -2687.104)" fill="#d2d7d9"/>
    <path id="Path_61" data-name="Path 61" d="M416.94,2916.347v-.117l.059.059-.025.024Z" transform="translate(-384.751 -2687.275)" fill="#d2d7d9"/>
    <path id="Path_62" data-name="Path 62" d="M416.94,1745.508h62.889v-3.618H416.94Z" transform="translate(-384.751 -1605.19)" fill="#acd5f4"/>
    <path id="Path_63" data-name="Path 63" d="M416.94,1868.848H524.976v-3.619H416.94Z" transform="translate(-384.751 -1718.837)" fill="#b0bfde"/>
    <path id="Path_64" data-name="Path 64" d="M416.94,1992.2h38.5v-3.619h-38.5Z" transform="translate(-384.751 -1832.495)" fill="#d1dbea"/>
    <path id="Path_65" data-name="Path 65" d="M416.94,2332.659H530.466v-3.619H416.94Z" transform="translate(-384.751 -2146.201)" fill="#acd5f4"/>
    <path id="Path_66" data-name="Path 66" d="M416.94,2456.01h46.651v-3.621H416.94Z" transform="translate(-384.751 -2259.857)" fill="#b0bfde"/>
    <path id="Path_67" data-name="Path 67" d="M416.94,2579.369h93.3v-3.619h-93.3Z" transform="translate(-384.751 -2373.525)" fill="#d1dbea"/>
    <path id="Path_68" data-name="Path 68" d="M416.94,2923.64h46.651v-3.619H416.94Z" transform="translate(-384.751 -2690.743)" fill="#acd5f4"/>
    <path id="Path_69" data-name="Path 69" d="M416.94,3046.988h93.3v-3.618h-93.3Z" transform="translate(-384.751 -2804.399)" fill="#b0bfde"/>
    <path id="Path_70" data-name="Path 70" d="M416.94,3170.347h77.009v-3.618H416.94Z" transform="translate(-384.751 -2918.065)" fill="#d1dbea"/>
    <path id="Path_72" data-name="Path 72" d="M11717.331,3787.7a18.4,18.4,0,0,0-3.911,11.847c0,7.165,3.419,13.168,8.017,14.771a18.386,18.386,0,0,0,3.915-11.845c0-7.168-3.417-13.17-8.02-14.772Z" transform="translate(-10773.356 -3490.009)" fill="#e4efff"/>
    <path id="Path_73" data-name="Path 73" d="M11585.329,4073.75c-3.613-4.448-8.453-6.949-12.59-6.923a18.932,18.932,0,0,0,4.406,10.592c3.609,4.449,8.45,6.948,12.588,6.925a18.952,18.952,0,0,0-4.4-10.593Z" transform="translate(-10643.536 -3747.287)" fill="#e4efff"/>
    <path id="Path_74" data-name="Path 74" d="M11519.736,4279a17.344,17.344,0,0,0-8.943-5.407c-6-1.525-11.905.072-15.254,3.653a17.354,17.354,0,0,0,8.942,5.408C11510.486,4284.177,11516.389,4282.582,11519.736,4279Z" transform="translate(-10572.297 -3937.346)" fill="#e4efff"/>
    <path id="Path_75" data-name="Path 75" d="M11847.424,4239.968c-5.568,1.679-9.637,5.665-10.965,10.118a16.633,16.633,0,0,0,13.045,1.182c5.568-1.68,9.641-5.665,10.963-10.118a16.608,16.608,0,0,0-13.043-1.183Z" transform="translate(-10886.896 -3906.134)" fill="#e4efff"/>
    <path id="Path_76" data-name="Path 76" d="M11861.584,4016.227a14.706,14.706,0,0,0-7.513,10.583,14.985,14.985,0,0,0,10.481-1.731,14.575,14.575,0,0,0,7.454-10.65A15.159,15.159,0,0,0,11861.584,4016.227Z" transform="translate(-10903.149 -3698.805)" fill="#e4efff"/>
    <path id="Path_77" data-name="Path 77" d="M11810.1,4169.244h.686v-56.076h-.686Z" transform="translate(-10862.571 -3789.53)" fill="#e4efff"/>
    <path id="Path_78" data-name="Path 78" d="M11810.5,4173.812l.441.524,3.981-3.334-.438-.522Z" transform="translate(-10862.938 -3842.938)" fill="#e4efff"/>
    <path id="Path_79" data-name="Path 79" d="M11519.705,4445.561a14.716,14.716,0,0,0,12.787,2.217,14.967,14.967,0,0,0-6.085-8.713,14.558,14.558,0,0,0-12.816-2.132,15.126,15.126,0,0,0,6.116,8.627Z" transform="translate(-10588.955 -4087.75)" fill="#e4efff"/>
    <path id="Path_80" data-name="Path 80" d="M11752.927,4576.093l.284-.625-4.725-2.158-.286.622Z" transform="translate(-10805.451 -4214.126)" fill="#e4efff"/>
    <path id="Path_81" data-name="Path 81" d="M11810,4367.366l.578.354,2.7-4.446-.588-.355Z" transform="translate(-10862.479 -4020.245)" fill="#e4efff"/>
    <path id="Path_82" data-name="Path 82" d="M11784.791,4287.85l.44-.526-2.394-1.994-.44.527Z" transform="translate(-10837.01 -3948.778)" fill="#e4efff"/>
    <path id="Path_83" data-name="Path 83" d="M11802.178,4350.2l.239-.646-.878-.33-.241.641Z" transform="translate(-10854.448 -4007.665)" fill="#e4efff"/>
    <path id="Path_84" data-name="Path 84" d="M11840.646,4366.472c3.611-4.452,8.448-6.949,12.588-6.924a18.983,18.983,0,0,1-4.4,10.593c-3.615,4.45-8.453,6.948-12.592,6.924A18.937,18.937,0,0,1,11840.646,4366.472Z" transform="translate(-10886.691 -4016.995)" fill="#e4efff"/>
    <path id="Path_85" data-name="Path 85" d="M11820.189,4571.745a17.334,17.334,0,0,1,8.944-5.408c6.009-1.526,11.909.071,15.257,3.653a17.347,17.347,0,0,1-8.942,5.409c-6.006,1.524-11.907-.073-15.259-3.653Z" transform="translate(-10871.883 -4207.082)" fill="#e4efff"/>
    <path id="Path_86" data-name="Path 86" d="M11810.438,4580.6l-.439-.526,2.393-1.993.441.525Z" transform="translate(-10862.479 -4218.522)" fill="#e4efff"/>
    <path id="Path_87" data-name="Path 87" d="M11813.54,4642.925l-.241-.645.881-.331.247.644Z" transform="translate(-10865.524 -4277.394)" fill="#e4efff"/>
    <path id="Path_88" data-name="Path 88" d="M11574.009,4658.43a12.355,12.355,0,0,0-5.493-5.02c-3.979-1.9-8.322-1.606-11.155.427a12.366,12.366,0,0,0,5.488,5.02c3.982,1.9,8.321,1.607,11.16-.427Z" transform="translate(-10629.344 -4286.697)" fill="#e4efff"/>
    <path id="Path_90" data-name="Path 90" d="M11757.309,4612.309l-53.911,39.345.434.6,53.911-39.345Z" transform="translate(-10764.104 -4249.598)" fill="#fff"/>
    <path id="Path_91" data-name="Path 91" d="M12255.83,4585.218l.943-11.287-.734-.062-.941,11.287Z" transform="translate(-11273.214 -4214.541)" fill="#fff"/>
    <path id="Path_92" data-name="Path 92" d="M12136.731,4640.761l1.167-13.911-.742-.061L12136,4640.7Z" transform="translate(-11163.312 -4263.271)" fill="#fff"/>
    <path id="Path_93" data-name="Path 93" d="M12017.639,4615.93l1.938-23.259-.73-.062-1.946,23.26Z" transform="translate(-11053.406 -4231.662)" fill="#fff"/>
    <path id="Path_94" data-name="Path 94" d="M11898.634,4710.361l1.883-22.629-.732-.062-1.884,22.631Z" transform="translate(-10943.593 -4319.256)" fill="#fff"/>
    <path id="Path_95" data-name="Path 95" d="M11779.53,4917.141l1.06-12.6-.741-.061-1.049,12.6Z" transform="translate(-10833.687 -4519.151)" fill="#fff"/>
    <path id="Path_96" data-name="Path 96" d="M12274.7,4708.112l11.032,2.545.166-.721-11.036-2.545Z" transform="translate(-11291.303 -4337.666)" fill="#fff"/>
    <path id="Path_97" data-name="Path 97" d="M12155.6,4795.021l17.208,3.97.162-.722-17.2-3.97Z" transform="translate(-11181.398 -4417.728)" fill="#fff"/>
    <path id="Path_98" data-name="Path 98" d="M12036.5,4881.912l21.54,4.968.17-.722-21.539-4.968Z" transform="translate(-11071.492 -4497.777)" fill="#fff"/>
    <path id="Path_99" data-name="Path 99" d="M11917.5,4968.781l22.127,5.108.163-.722-22.129-5.108Z" transform="translate(-10961.679 -4577.818)" fill="#fff"/>
    <path id="Path_100" data-name="Path 100" d="M11798.4,5055.73l19.009,4.383.17-.722-19.016-4.382Z" transform="translate(-10851.773 -4657.945)" fill="#fff"/>
    <path id="Path_101" data-name="Path 101" d="M11782.377,3700.9c-.062.061-36.584,36.58-55.9,125.61l1.064.231c9.635-44.405,23.551-75.686,35.051-95.861a190.5,190.5,0,0,1,14.6-22.181c1.854-2.392,3.346-4.152,4.371-5.314.516-.58.91-1.01,1.176-1.3.137-.142.238-.248.307-.317l.1-.1-.768-.771h0Z" transform="translate(-10785.407 -3408.788)" fill="#b0bfde"/>
    <path id="Path_102" data-name="Path 102" d="M11668.132,3930.419c-.017.039-22.883,46.27-23.122,98.909l1.091,0c.116-26.163,5.867-50.784,11.594-68.854,2.862-9.036,5.718-16.435,7.857-21.571,1.068-2.569,1.959-4.573,2.582-5.932.312-.682.555-1.2.721-1.549s.255-.524.255-.524l-.978-.484Z" transform="translate(-10710.227 -3620.597)" fill="#b0bfde"/>
    <path id="Path_103" data-name="Path 103" d="M11936.79,4403.22c-.045.023-8.52,4.36-17.05,14.75s-17.1,26.845-17.3,51.023l1.089.01c.2-23.92,8.658-40.107,17.057-50.342a66.741,66.741,0,0,1,11.516-11.081c1.566-1.171,2.869-2.021,3.776-2.577.453-.278.808-.483,1.05-.618.119-.066.212-.117.272-.149l.086-.046-.492-.97h0Z" transform="translate(-10947.781 -4056.611)" fill="#b0bfde"/>
    <path id="Path_104" data-name="Path 104" d="M12305.184,3560.95c7.5,4.465,12.11,10.544,10.3,13.581s-9.354,1.883-16.849-2.576-12.111-10.543-10.3-13.579,9.351-1.888,16.851,2.575Z" transform="translate(-11303.521 -3277.223)" fill="#b0bfde"/>
    <path id="Path_105" data-name="Path 105" d="M12416.954,3644.437c2.383,1.417,3.85,3.347,3.274,4.31s-2.972.6-5.353-.82-3.846-3.345-3.271-4.311S12414.574,3643.018,12416.954,3644.437Z" transform="translate(-11417.525 -3356.958)" fill="#0c1153"/>
    <path id="Path_106" data-name="Path 106" d="M11888.211,3873.191c3.121,1.858,5.043,4.389,4.289,5.655s-3.895.785-7.016-1.074-5.039-4.389-4.291-5.653,3.9-.786,7.018,1.073Z" transform="translate(-10928.028 -3567.329)" fill="#b0bfde"/>
    <path id="Path_107" data-name="Path 107" d="M11934.762,3907.951c.99.589,1.6,1.393,1.363,1.792s-1.238.251-2.229-.338-1.6-1.394-1.362-1.8S11933.773,3907.361,11934.762,3907.951Z" transform="translate(-10975.506 -3600.531)" fill="#0c1153"/>
    <path id="Path_108" data-name="Path 108" d="M12276.5,4328.892c3.261,3.362,4.8,7.16,3.438,8.483s-5.111-.337-8.377-3.7-4.794-7.159-3.434-8.481,5.109.337,8.371,3.7Z" transform="translate(-11284.779 -3984.974)" fill="#b0bfde"/>
    <path id="Path_109" data-name="Path 109" d="M12327.041,4383.937c1.034,1.069,1.521,2.277,1.091,2.693s-1.623-.107-2.661-1.172-1.522-2.273-1.089-2.692S12326,4382.87,12327.041,4383.937Z" transform="translate(-11337.004 -4038.405)" fill="#0c1153"/>
    <path id="Path_112" data-name="Path 112" d="M11717.732,4761.092a1.4,1.4,0,1,0-1.6-1.176A1.4,1.4,0,0,0,11717.732,4761.092Zm-3.191-.964.292-.216-.154-.055c-1.334-.522-2.194-1.51-1.92-2.207s1.576-.84,2.908-.318c.115.044.225.1.33.146l-.026-.16c-.214-1.416.21-2.652.95-2.768s1.515.948,1.73,2.363c.015.122.026.241.037.36l.125-.106c1.118-.893,2.406-1.146,2.873-.559s-.06,1.783-1.182,2.676l-.289.214.149.055c1.332.522,2.192,1.511,1.922,2.207s-1.576.838-2.908.317c-.115-.044-.223-.093-.33-.146l.028.162c.212,1.417-.212,2.653-.952,2.767s-1.517-.947-1.729-2.363c-.021-.122-.028-.239-.037-.359l-.127.105c-1.12.893-2.4,1.146-2.871.562s.058-1.784,1.18-2.677Z" transform="translate(-10772.697 -4381.025)" fill="#fff"/>
    <path id="Path_113" data-name="Path 113" d="M1751.751,3820.482l-9.52,13.139-16.766,25.1-6.245-17.823-13.634,6.772-6.454-16.214-8.363,8.157-3.5-1.383-11-6.039.656,12.375,8.424,4.687-20.483,36-7.394,3.467-4.38-14.943-.981-24.229-11.6-2.032-3.853-9.435,8.936-17.241,10.049-.994,5.528,4.789,14.808-1.605-14.631-10.757-12.879-4-.161-4.056,13.676-5.669-4.3-9.021,14.444-9.986,13.11,6.645,23.791-4.1s10-3.735,21.189-7.83a92.235,92.235,0,0,1,21.522,46.23Z" transform="translate(-1510.315 -3476.521)" fill="#b0bfde"/>
    <path id="Path_114" data-name="Path 114" d="M6019.429,1298.5a23.869,23.869,0,1,1,16.425-29.49,23.867,23.867,0,0,1-16.425,29.49Zm53.488-1.516,4.247-16.885-8.561-4.216a55.3,55.3,0,0,0-.464-7.475l8.407-4.469-4.763-16.744-10.529.7a55.9,55.9,0,0,0-3.611-5.532l5.531-8.853-12.5-12.116-9.353,6.258a56.479,56.479,0,0,0-5.33-2.788l.385-11.02L6019.5,1209.6l-5.046,10.251a55.193,55.193,0,0,0-5.908.152l-5.207-9.792-16.74,4.766.734,11.066a54.9,54.9,0,0,0-5.4,3.183l-9.023-5.64-12.115,12.5,5.743,8.577a55.628,55.628,0,0,0-3.513,6.062l-9.78-.342L5949,1267.263l8.333,4.1a55.181,55.181,0,0,0-.023,7.967l-7.7,4.087,4.766,16.744,8.272-.545a55.2,55.2,0,0,0,4.442,7.662l-4.108,6.569,12.5,12.115,6.3-4.216a56.293,56.293,0,0,0,8.254,4.59l-.252,7.173,16.881,4.253,3.241-6.589a55.152,55.152,0,0,0,9.571-.321l3.346,6.3,16.739-4.764-.508-7.664a55.424,55.424,0,0,0,7.75-4.979l6.449,4.031,12.115-12.5-4.728-7.062a55.865,55.865,0,0,0,3.786-7.53l8.489.3Z" transform="translate(-5470.364 -1114.238)" fill="#fff"/>
    <path id="Path_115" data-name="Path 115" d="M6343.4,1650.666a29.246,29.246,0,1,1,20.117-36.133A29.242,29.242,0,0,1,6343.4,1650.666Zm-18.112-63.618a36.9,36.9,0,1,0,45.593,25.386,36.9,36.9,0,0,0-45.593-25.386Z" transform="translate(-5792.962 -1460.886)" fill="#d1dbea"/>
    <path id="Path_116" data-name="Path 116" d="M2150.639,2490.715H2667.1V2199.89H2150.639Z" transform="translate(-1971.701 -2023.827)" fill="#316091"/>
    <path id="Path_117" data-name="Path 117" d="M2153.26,2206.535h516.463V2199H2153.26Z" transform="translate(-1974.104 -2026.357)" fill="#acd5f4"/>
    <path id="Path_118" data-name="Path 118" d="M2271.68,2244.66h12.428v-.72H2271.68Z" transform="translate(-2096.301 -2067.805)" fill="#86bbd8"/>
    <path id="Path_119" data-name="Path 119" d="M2478.44,2244.66h12.427v-.72H2478.44Z" transform="translate(-2280.001 -2067.805)" fill="#86bbd8"/>
    <path id="Path_120" data-name="Path 120" d="M2685.2,2244.66h12.43v-.72H2685.2Z" transform="translate(-2470.207 -2067.805)" fill="#86bbd8"/>
    <path id="Path_121" data-name="Path 121" d="M2892,2244.66h12.43v-.72H2892Z" transform="translate(-2660.449 -2067.805)" fill="#86bbd8"/>
    <path id="Path_122" data-name="Path 122" d="M3098.74,2244.66h12.431v-.72H3098.74Z" transform="translate(-2850.637 -2067.805)" fill="#86bbd8"/>
    <path id="Path_123" data-name="Path 123" d="M3305.479,2244.66h12.432v-.72h-12.432Z" transform="translate(-3040.823 -2067.805)" fill="#86bbd8"/>
    <path id="Path_124" data-name="Path 124" d="M3512.229,2244.66h12.435v-.72h-12.435Z" transform="translate(-3231.02 -2067.805)" fill="#86bbd8"/>
    <path id="Path_125" data-name="Path 125" d="M3719.06,2244.66h12.432v-.72H3719.06Z" transform="translate(-3421.291 -2067.805)" fill="#86bbd8"/>
    <path id="Path_126" data-name="Path 126" d="M2200.15,2234.611h2.343v-2.551h-2.343Z" transform="translate(-2030.292 -2056.848)" fill="#86bbd8"/>
    <path id="Path_127" data-name="Path 127" d="M2153.26,2294.878h516.463v-9.009H2153.26Z" transform="translate(-1974.104 -2106.392)" fill="#316091"/>
    <path id="Path_128" data-name="Path 128" d="M8394.21,2317.087h32.766v-5.677H8394.21Z" transform="translate(-7721.603 -2129.945)" fill="#194866"/>
    <path id="Path_129" data-name="Path 129" d="M8322.789,2341.795h1.277v-1.165h-1.277Z" transform="translate(-7656.691 -2156.894)" fill="#596273"/>
    <path id="Path_130" data-name="Path 130" d="M8064.679,2341.661h17.256v-1.172h-17.256Z" transform="translate(-7418.858 -2156.766)" fill="#194866"/>
    <path id="Path_131" data-name="Path 131" d="M2301.8,2331.245h2.339v-2.555H2301.8Z" transform="translate(-2124.096 -2145.885)" fill="#86c0f0"/>
    <path id="Path_132" data-name="Path 132" d="M2200.15,2331.245h2.343v-2.555h-2.343Z" transform="translate(-2030.292 -2145.885)" fill="#86c0f0"/>
    <path id="Path_133" data-name="Path 133" d="M2368.38,2331.245h2.344v-2.555h-2.344Z" transform="translate(-2185.535 -2145.885)" fill="#86c0f0"/>
    <path id="Path_134" data-name="Path 134" d="M3004.27,2482.5h107.958v-3.457H3004.27Z" transform="translate(-2762.784 -2284.414)" fill="#3dc7c9"/>
    <path id="Path_135" data-name="Path 135" d="M3119.919,2647.218h17.858v-3.457h-17.858Z" transform="translate(-2870.07 -2436.192)" fill="#2c7eea"/>
    <path id="Path_136" data-name="Path 136" d="M3119.919,2811.968h17.858v-3.457h-17.858Z" transform="translate(-2870.07 -2587.996)" fill="#2c7eea"/>
    <path id="Path_137" data-name="Path 137" d="M3119.919,2976.707h17.858v-3.458h-17.858Z" transform="translate(-2870.07 -2739.79)" fill="#2c7eea"/>
    <path id="Path_138" data-name="Path 138" d="M3803.33,2647.218h54.791v-3.457H3803.33Z" transform="translate(-3498.313 -2436.192)" fill="#3dc7c9"/>
    <path id="Path_139" data-name="Path 139" d="M3803.33,2811.968h54.791v-3.457H3803.33Z" transform="translate(-3498.313 -2587.996)" fill="#3dc7c9"/>
    <path id="Path_140" data-name="Path 140" d="M3803.33,2976.707h54.791v-3.458H3803.33Z" transform="translate(-3498.313 -2739.79)" fill="#3dc7c9"/>
    <path id="Path_141" data-name="Path 141" d="M3451.1,2647.218h12.583v-3.457H3451.1Z" transform="translate(-3174.782 -2436.192)" fill="#f1fafc"/>
    <path id="Path_142" data-name="Path 142" d="M3451.1,2811.968h12.583v-3.457H3451.1Z" transform="translate(-3174.782 -2587.996)" fill="#f1fafc"/>
    <path id="Path_143" data-name="Path 143" d="M3451.1,2976.707h12.583v-3.458H3451.1Z" transform="translate(-3174.782 -2739.79)" fill="#f1fafc"/>
    <path id="Path_144" data-name="Path 144" d="M3684.41,2647.218h3.344v-3.457h-3.344Z" transform="translate(-3389.513 -2436.192)" fill="#e9d6b8"/>
    <path id="Path_145" data-name="Path 145" d="M3684.41,2811.968h3.344v-3.457h-3.344Z" transform="translate(-3389.513 -2587.996)" fill="#e9d6b8"/>
    <path id="Path_146" data-name="Path 146" d="M3684.41,2976.707h3.344v-3.458h-3.344Z" transform="translate(-3389.513 -2739.79)" fill="#e9d6b8"/>
    <path id="Path_147" data-name="Path 147" d="M3009.48,2647.218h3.349v-3.457h-3.349Z" transform="translate(-2768.604 -2436.192)" fill="#e9d6b8"/>
    <path id="Path_148" data-name="Path 148" d="M3009.48,2811.968h3.349v-3.457h-3.349Z" transform="translate(-2768.604 -2587.996)" fill="#e9d6b8"/>
    <path id="Path_149" data-name="Path 149" d="M3009.48,2976.707h3.349v-3.458h-3.349Z" transform="translate(-2768.604 -2739.79)" fill="#e9d6b8"/>
    <path id="Path_150" data-name="Path 150" d="M3119.919,3306.177h27.6v-3.457h-27.6Z" transform="translate(-2869.978 -3043.37)" fill="#2c7eea"/>
    <path id="Path_151" data-name="Path 151" d="M3971.57,3306.177h41.8v-3.457h-41.8Z" transform="translate(-3653.226 -3043.37)" fill="#3dc7c9"/>
    <path id="Path_152" data-name="Path 152" d="M3577.3,3306.177h15.826v-3.457H3577.3Z" transform="translate(-3290.843 -3043.37)" fill="#f1fafc"/>
    <path id="Path_153" data-name="Path 153" d="M3852.63,3306.177h3.346v-3.457h-3.346Z" transform="translate(-3544.268 -3043.37)" fill="#e9d6b8"/>
    <path id="Path_154" data-name="Path 154" d="M4534.08,3635.647h129.468v-3.457H4534.08Z" transform="translate(-4169.262 -3346.951)" fill="#3dc7c9"/>
    <path id="Path_155" data-name="Path 155" d="M3598.28,3635.647h62.1v-3.457h-62.1Z" transform="translate(-3309.62 -3346.951)" fill="#f1fafc"/>
    <path id="Path_156" data-name="Path 156" d="M5143.869,3306.177h41.805v-3.457h-41.805Z" transform="translate(-4731.558 -3043.37)" fill="#3dc7c9"/>
    <path id="Path_157" data-name="Path 157" d="M4665.5,3306.177h22.321v-3.457H4665.5Z" transform="translate(-4291.814 -3043.37)" fill="#f1fafc"/>
    <path id="Path_158" data-name="Path 158" d="M5024.979,3306.177h3.345v-3.457h-3.345Z" transform="translate(-4622.785 -3043.37)" fill="#e9d6b8"/>
    <path id="Path_159" data-name="Path 159" d="M5739.939,3306.177h3.345v-3.457h-3.345Z" transform="translate(-5280.52 -3043.37)" fill="#e9d6b8"/>
    <path id="Path_160" data-name="Path 160" d="M3009.48,3306.177h3.349v-3.457h-3.349Z" transform="translate(-2768.604 -3043.37)" fill="#e9d6b8"/>
    <path id="Path_161" data-name="Path 161" d="M3119.919,3965.107h27.6v-3.458h-27.6Z" transform="translate(-2869.978 -3650.522)" fill="#2c7eea"/>
    <path id="Path_162" data-name="Path 162" d="M3009.48,3965.107h3.349v-3.458h-3.349Z" transform="translate(-2768.604 -3650.522)" fill="#f1fafc"/>
    <path id="Path_163" data-name="Path 163" d="M3545.75,3965.107h3.347v-3.458h-3.347Z" transform="translate(-3261.951 -3650.522)" fill="#f1fafc"/>
    <path id="Path_164" data-name="Path 164" d="M2846.519,4624.047h27.6v-3.458h-27.6Z" transform="translate(-2618.48 -4257.685)" fill="#2c7eea"/>
    <path id="Path_165" data-name="Path 165" d="M2736.14,4624.047h3.351v-3.458h-3.351Z" transform="translate(-2517.142 -4257.685)" fill="#f1fafc"/>
    <path id="Path_166" data-name="Path 166" d="M3272.37,4624.047h3.347v-3.458h-3.347Z" transform="translate(-3010.452 -4257.685)" fill="#f1fafc"/>
    <path id="Path_167" data-name="Path 167" d="M3309.169,3800.356h3.349V3796.9h-3.349Z" transform="translate(-3044.307 -3498.718)" fill="#e9d6b8"/>
    <path id="Path_168" data-name="Path 168" d="M3309.169,3470.927h16.238v-3.457h-16.238Z" transform="translate(-3044.181 -3195.175)" fill="#2c7eea"/>
    <path id="Path_169" data-name="Path 169" d="M3598.28,3470.927h63.3v-3.457h-63.3Z" transform="translate(-3309.606 -3195.175)" fill="#e9d6b8"/>
    <path id="Path_170" data-name="Path 170" d="M5012.5,2647.218h54.789v-3.457H5012.5Z" transform="translate(-4610.51 -2436.192)" fill="#3dc7c9"/>
    <path id="Path_171" data-name="Path 171" d="M5012.5,2811.968h54.789v-3.457H5012.5Z" transform="translate(-4610.51 -2587.996)" fill="#3dc7c9"/>
    <path id="Path_172" data-name="Path 172" d="M5012.5,2976.707h54.789v-3.458H5012.5Z" transform="translate(-4610.51 -2739.79)" fill="#3dc7c9"/>
    <path id="Path_173" data-name="Path 173" d="M5759,2647.218h95.785v-3.457H5759Z" transform="translate(-5296.34 -2436.192)" fill="#3dc7c9"/>
    <path id="Path_174" data-name="Path 174" d="M5759,2811.968h131.1v-3.457H5759Z" transform="translate(-5295.586 -2587.996)" fill="#3dc7c9"/>
    <path id="Path_175" data-name="Path 175" d="M5759,2976.707h154.631v-3.458H5759Z" transform="translate(-5295.048 -2739.79)" fill="#3dc7c9"/>
    <path id="Path_176" data-name="Path 176" d="M4660.229,2647.218h12.584v-3.457h-12.584Z" transform="translate(-4287.103 -2436.192)" fill="#f1fafc"/>
    <path id="Path_177" data-name="Path 177" d="M4660.229,2811.968h12.584v-3.457h-12.584Z" transform="translate(-4287.103 -2587.996)" fill="#f1fafc"/>
    <path id="Path_178" data-name="Path 178" d="M4660.229,2976.707h12.584v-3.458h-12.584Z" transform="translate(-4287.103 -2739.79)" fill="#f1fafc"/>
    <path id="Path_179" data-name="Path 179" d="M4893.54,2647.218h3.348v-3.457h-3.348Z" transform="translate(-4501.866 -2436.192)" fill="#e9d6b8"/>
    <path id="Path_180" data-name="Path 180" d="M4893.54,2811.968h3.348v-3.457h-3.348Z" transform="translate(-4501.866 -2587.996)" fill="#e9d6b8"/>
    <path id="Path_181" data-name="Path 181" d="M4893.54,2976.707h3.348v-3.458h-3.348Z" transform="translate(-4501.866 -2739.79)" fill="#e9d6b8"/>
    <path id="Path_182" data-name="Path 182" d="M7162.579,2647.218h3.351v-3.457h-3.351Z" transform="translate(-6589.292 -2436.192)" fill="#e9d6b8"/>
    <path id="Path_183" data-name="Path 183" d="M7579.9,2811.968h3.351v-3.457H7579.9Z" transform="translate(-6973.212 -2587.996)" fill="#e9d6b8"/>
    <path id="Path_184" data-name="Path 184" d="M7863.8,2976.707h3.351v-3.458H7863.8Z" transform="translate(-7234.386 -2739.79)" fill="#e9d6b8"/>
    <path id="Path_185" data-name="Path 185" d="M3004.27,3141.457h107.958V3138H3004.27Z" transform="translate(-2762.784 -2891.594)" fill="#7ec8ef"/>
    <path id="Path_186" data-name="Path 186" d="M2836.02,4974.4h17.857v-3.458H2836.02Z" transform="translate(-2608.906 -4580.502)" fill="#2c7eea"/>
    <path id="Path_187" data-name="Path 187" d="M3377.51,5303.835h17.855v-3.457H3377.51Z" transform="translate(-3107.032 -4884.055)" fill="#2c7eea"/>
    <path id="Path_188" data-name="Path 188" d="M4060.93,5303.835h118.509v-3.457H4060.93Z" transform="translate(-3734.351 -4884.055)" fill="#3dc7c9"/>
    <path id="Path_189" data-name="Path 189" d="M3020.049,5139.126h173.7v-3.457h-173.7Z" transform="translate(-2776.51 -4732.288)" fill="#f1fafc"/>
    <path id="Path_190" data-name="Path 190" d="M3708.72,5303.835H3721.3v-3.457H3708.72Z" transform="translate(-3411.777 -4884.055)" fill="#f1fafc"/>
    <path id="Path_191" data-name="Path 191" d="M3942.03,5303.835h3.345v-3.457h-3.345Z" transform="translate(-3626.513 -4884.055)" fill="#e9d6b8"/>
    <path id="Path_192" data-name="Path 192" d="M2725.59,4974.4h3.352v-3.458h-3.352Z" transform="translate(-2507.435 -4580.502)" fill="#e9d6b8"/>
    <path id="Path_193" data-name="Path 193" d="M3119.919,4974.4h3.349v-3.458h-3.349Z" transform="translate(-2870.204 -4580.502)" fill="#e9d6b8"/>
    <path id="Path_194" data-name="Path 194" d="M3687.67,5468.576h8.117v-3.456h-8.117Z" transform="translate(-3392.461 -5035.851)" fill="#2c7eea"/>
    <path id="Path_195" data-name="Path 195" d="M3577.3,5468.576h3.347v-3.456H3577.3Z" transform="translate(-3290.975 -5035.851)" fill="#e9d6b8"/>
    <path id="Path_196" data-name="Path 196" d="M3845.369,5468.576h3.35v-3.456h-3.35Z" transform="translate(-3537.589 -5035.851)" fill="#e9d6b8"/>
    <path id="Path_197" data-name="Path 197" d="M3982.059,5798.057h8.119V5794.6h-8.119Z" transform="translate(-3663.283 -5337.702)" fill="#2c7eea"/>
    <path id="Path_198" data-name="Path 198" d="M3871.689,5798.057h3.35V5794.6h-3.35Z" transform="translate(-3561.803 -5337.702)" fill="#e9d6b8"/>
    <path id="Path_199" data-name="Path 199" d="M4139.789,5798.057h3.35V5794.6h-3.35Z" transform="translate(-3808.443 -5337.702)" fill="#e9d6b8"/>
    <path id="Path_200" data-name="Path 200" d="M3267.09,5303.835h3.35v-3.457h-3.35Z" transform="translate(-3005.595 -4884.055)" fill="#e9d6b8"/>
    <path id="Path_201" data-name="Path 201" d="M3876.939,5633.338h268.678v-3.459H3876.939Z" transform="translate(-3562.51 -5187.663)" fill="#f1fafc"/>
    <path id="Path_202" data-name="Path 202" d="M5648.56,5303.835h3.347v-3.457h-3.347Z" transform="translate(-5196.453 -4884.055)" fill="#e9d6b8"/>
    <path id="Path_203" data-name="Path 203" d="M3004.27,4129.855h148.542V4126.4H3004.27Z" transform="translate(-2762.316 -3802.325)" fill="#7ec8ef"/>
    <path id="Path_204" data-name="Path 204" d="M3004.27,4294.6h219.979v-3.457H3004.27Z" transform="translate(-2761.371 -3954.121)" fill="#7ec8ef"/>
    <path id="Path_205" data-name="Path 205" d="M3004.27,4459.316h74.678v-3.458H3004.27Z" transform="translate(-2763.136 -4105.896)" fill="#7ec8ef"/>
    <path id="Path_206" data-name="Path 206" d="M2236.73,2482.5h8.116v-3.457h-8.116Z" transform="translate(-2064.049 -2284.414)" fill="#2c7eea"/>
    <path id="Path_207" data-name="Path 207" d="M2236.73,2647.218h8.116v-3.457h-8.116Z" transform="translate(-2064.049 -2436.192)" fill="#2c7eea"/>
    <path id="Path_208" data-name="Path 208" d="M2236.73,2811.968h8.116v-3.457h-8.116Z" transform="translate(-2064.049 -2587.996)" fill="#2c7eea"/>
    <path id="Path_209" data-name="Path 209" d="M2236.73,2976.707h8.116v-3.458h-8.116Z" transform="translate(-2064.049 -2739.79)" fill="#2c7eea"/>
    <path id="Path_210" data-name="Path 210" d="M2236.73,3141.457h8.116V3138h-8.116Z" transform="translate(-2064.049 -2891.594)" fill="#2c7eea"/>
    <path id="Path_211" data-name="Path 211" d="M2236.73,3306.177h8.116v-3.457h-8.116Z" transform="translate(-2064.049 -3043.37)" fill="#2c7eea"/>
    <path id="Path_212" data-name="Path 212" d="M2236.73,3470.927h8.116v-3.457h-8.116Z" transform="translate(-2064.049 -3195.175)" fill="#2c7eea"/>
    <path id="Path_213" data-name="Path 213" d="M2236.73,3635.647h8.116v-3.457h-8.116Z" transform="translate(-2064.049 -3346.951)" fill="#2c7eea"/>
    <path id="Path_214" data-name="Path 214" d="M2236.73,3800.356h8.116V3796.9h-8.116Z" transform="translate(-2064.049 -3498.718)" fill="#2c7eea"/>
    <path id="Path_215" data-name="Path 215" d="M2236.73,3965.107h8.116v-3.458h-8.116Z" transform="translate(-2064.049 -3650.522)" fill="#2c7eea"/>
    <path id="Path_216" data-name="Path 216" d="M2236.73,4129.855h8.116V4126.4h-8.116Z" transform="translate(-2064.049 -3802.325)" fill="#2c7eea"/>
    <path id="Path_217" data-name="Path 217" d="M2236.73,4294.6h8.116v-3.457h-8.116Z" transform="translate(-2064.049 -3954.121)" fill="#2c7eea"/>
    <path id="Path_218" data-name="Path 218" d="M2236.73,4459.316h8.116v-3.458h-8.116Z" transform="translate(-2064.049 -4105.896)" fill="#2c7eea"/>
    <path id="Path_219" data-name="Path 219" d="M2236.73,4624.047h8.116v-3.458h-8.116Z" transform="translate(-2064.049 -4257.685)" fill="#2c7eea"/>
    <path id="Path_220" data-name="Path 220" d="M2236.73,4788.816h8.116v-3.457h-8.116Z" transform="translate(-2064.049 -4409.504)" fill="#2c7eea"/>
    <path id="Path_221" data-name="Path 221" d="M2236.73,4953.527h8.116v-3.458h-8.116Z" transform="translate(-2064.049 -4561.272)" fill="#2c7eea"/>
    <path id="Path_222" data-name="Path 222" d="M2236.73,5118.275h8.116v-3.456h-8.116Z" transform="translate(-2064.049 -4713.076)" fill="#2c7eea"/>
    <path id="Path_223" data-name="Path 223" d="M5271.018,3072.755H5762.75V2829.62H5271.018Z" transform="translate(-4828.322 -2604.391)" fill="#fff"/>
    <path id="Path_224" data-name="Path 224" d="M5411.34,3415.758h238V3282.289h-238Z" transform="translate(-4969.678 -3024.325)" fill="#acd5f4"/>
    <path id="Path_225" data-name="Path 225" d="M5411.3,5087.936h238.006v-65.207H5411.3Z" transform="translate(-4973.307 -4627.337)" fill="#effaff"/>
    <path id="Path_226" data-name="Path 226" d="M8556.889,3345.021h228.783v-62.731H8556.889Z" transform="translate(-7860.517 -3023.995)" fill="#74b2e8"/>
    <path id="Path_227" data-name="Path 227" d="M5757.823,2399.09H5275.966a4.762,4.762,0,0,0-4.906,4.6v28.8h491.674v-28.8A4.766,4.766,0,0,0,5757.823,2399.09Z" transform="translate(-4828.361 -2210.557)" fill="#acd5f4"/>
    <path id="Path_228" data-name="Path 228" d="M5334.945,2479.91a2.978,2.978,0,1,1-2.98-2.98A2.985,2.985,0,0,1,5334.945,2479.91Z" transform="translate(-4902.421 -2282.455)" fill="#86bbd8"/>
    <path id="Path_229" data-name="Path 229" d="M5448.3,2479.91a2.976,2.976,0,1,1-2.979-2.98A2.982,2.982,0,0,1,5448.3,2479.91Z" transform="translate(-5006.708 -2282.455)" fill="#86bbd8"/>
    <path id="Path_230" data-name="Path 230" d="M5561.522,2479.91a2.977,2.977,0,1,1-2.976-2.98A2.984,2.984,0,0,1,5561.522,2479.91Z" transform="translate(-5110.864 -2282.455)" fill="#86bbd8"/>
    <path id="Path_231" data-name="Path 231" d="M5795.769,2621.128h384.293V2608.2H5795.769Z" transform="translate(-5312.562 -2403.362)" fill="#fff"/>
    <path id="Path_232" data-name="Path 232" d="M5325.651,2633.4l-4.68-4.688,4.68-4.681,1.742,1.739-2.946,2.943,2.946,2.947Z" transform="translate(-4895.036 -2417.973)" fill="#86bbd8"/>
    <path id="Path_233" data-name="Path 233" d="M5356.91,2671.191h8.654v-2.461h-8.654Z" transform="translate(-4928.065 -2459.206)" fill="#86bbd8"/>
    <path id="Path_234" data-name="Path 234" d="M5617.846,2633.4l-1.735-1.741,2.94-2.947-2.94-2.943,1.735-1.739,4.687,4.681Z" transform="translate(-5166.553 -2417.973)" fill="#86bbd8"/>
    <path id="Path_235" data-name="Path 235" d="M5551.16,2671.191h8.656v-2.461h-8.656Z" transform="translate(-5106.764 -2459.206)" fill="#86bbd8"/>
    <path id="Path_236" data-name="Path 236" d="M10838.5,2619.733h37.751V2608.2H10838.5Z" transform="translate(-9965.982 -2403.372)" fill="#74b2e8"/>
    <path id="Path_237" data-name="Path 237" d="M6051.508,3030.867h38.186v-4.138h-38.186Z" transform="translate(-5566.514 -2789.062)" fill="#acd5f4"/>
    <path id="Path_238" data-name="Path 238" d="M6618.929,3030.867h38.18v-4.138h-38.18Z" transform="translate(-6088.458 -2789.062)" fill="#acd5f4"/>
    <path id="Path_239" data-name="Path 239" d="M7186.31,3030.867h38.185v-4.138H7186.31Z" transform="translate(-6610.368 -2789.062)" fill="#acd5f4"/>
    <path id="Path_240" data-name="Path 240" d="M7753.749,3030.867h38.183v-4.138h-38.183Z" transform="translate(-7132.329 -2789.062)" fill="#acd5f4"/>
    <path id="Path_241" data-name="Path 241" d="M8321.149,3030.867h38.179v-4.138h-38.179Z" transform="translate(-7654.256 -2789.062)" fill="#acd5f4"/>
    <path id="Path_242" data-name="Path 242" d="M10696.3,2940.328h61.652v-3.1H10696.3Z" transform="translate(-9834.76 -2706.604)" fill="#acd5f4"/>
    <path id="Path_243" data-name="Path 243" d="M10865.6,3036.524h48.584v-3.1H10865.6Z" transform="translate(-9990.987 -2795.234)" fill="#acd5f4"/>
    <path id="Path_244" data-name="Path 244" d="M5411.34,2993.109H5451.7V2982.07H5411.34Z" transform="translate(-4977.614 -2747.859)" fill="#74b2e8"/>
    <path id="Path_245" data-name="Path 245" d="M5556.229,5145.221h86.116v-4.292h-86.116Z" transform="translate(-5110.049 -4737.123)" fill="#74b2e8"/>
    <path id="Path_246" data-name="Path 246" d="M5556.229,5263.217h208.945V5260H5556.229Z" transform="translate(-5107.293 -4846.852)" fill="#acd5f4"/>
    <path id="Path_247" data-name="Path 247" d="M5544.689,5360.554h182.455v-3.223H5544.689Z" transform="translate(-5097.351 -4936.534)" fill="#acd5f4"/>
    <path id="Path_248" data-name="Path 248" d="M5535.25,5533.1h41.885v-11.45H5535.25Z" transform="translate(-5091.566 -5087.825)" fill="#74b2e8"/>
    <path id="Path_249" data-name="Path 249" d="M5658,5578.129h22.939v-3.219H5658Z" transform="translate(-5204.809 -5137.016)" fill="#fff"/>
    <path id="Path_250" data-name="Path 250" d="M8678.01,3451.1h87.738v-4.287H8678.01Z" transform="translate(-7981.092 -3176.131)" fill="#fff"/>
    <path id="Path_251" data-name="Path 251" d="M8678.01,3569.062h210.568v-3.222H8678.01Z" transform="translate(-7972.285 -3285.817)" fill="#acd5f4"/>
    <path id="Path_252" data-name="Path 252" d="M8678.01,3666.417h183.176v-3.227H8678.01Z" transform="translate(-7972.285 -3375.517)" fill="#acd5f4"/>
    <path id="Path_253" data-name="Path 253" d="M8678.01,3838.95h41.884V3827.5H8678.01Z" transform="translate(-7982.414 -3526.835)" fill="#fff"/>
    <path id="Path_254" data-name="Path 254" d="M8800.8,3883.961h22.936v-3.221H8800.8Z" transform="translate(-8095.878 -3575.973)" fill="#d0dee6"/>
    <path id="Path_255" data-name="Path 255" d="M8554.051,5087.936h111.992v-65.207H8554.051Z" transform="translate(-7866.343 -4627.337)" fill="#effaff"/>
    <path id="Path_256" data-name="Path 256" d="M8691.559,5145.221H8755.8v-4.292h-64.239Z" transform="translate(-7994.249 -4737.123)" fill="#74b2e8"/>
    <path id="Path_257" data-name="Path 257" d="M8691.559,5263.217h73.279V5260h-73.279Z" transform="translate(-7993.985 -4846.852)" fill="#acd5f4"/>
    <path id="Path_258" data-name="Path 258" d="M8687.569,5360.554h63.988v-3.223h-63.988Z" transform="translate(-7990.586 -4936.534)" fill="#acd5f4"/>
    <path id="Path_259" data-name="Path 259" d="M8678.01,5533.1h41.89v-11.45h-41.89Z" transform="translate(-7982.414 -5087.825)" fill="#74b2e8"/>
    <path id="Path_260" data-name="Path 260" d="M8800.8,5578.129h22.936v-3.219H8800.8Z" transform="translate(-8095.878 -5137.016)" fill="#fff"/>
    <path id="Path_261" data-name="Path 261" d="M8554.051,4230.5h111.992v-65.3H8554.051Z" transform="translate(-7866.343 -3837.344)" fill="#74b2e8"/>
    <path id="Path_262" data-name="Path 262" d="M10072.8,5087.936h111.982v-65.207H10072.8Z" transform="translate(-9259.396 -4627.337)" fill="#effaff"/>
    <path id="Path_263" data-name="Path 263" d="M10210.3,5145.221h64.232v-4.292H10210.3Z" transform="translate(-9386.281 -4737.123)" fill="#74b2e8"/>
    <path id="Path_264" data-name="Path 264" d="M10210.3,5263.217h73.28V5260h-73.28Z" transform="translate(-9386.281 -4846.852)" fill="#acd5f4"/>
    <path id="Path_265" data-name="Path 265" d="M10206.2,5360.554h63.985v-3.223H10206.2Z" transform="translate(-9382.496 -4936.534)" fill="#acd5f4"/>
    <path id="Path_266" data-name="Path 266" d="M10196.7,5533.1h41.889v-11.45H10196.7Z" transform="translate(-9373.729 -5087.825)" fill="#74b2e8"/>
    <path id="Path_267" data-name="Path 267" d="M10319.5,5578.129h22.938v-3.219H10319.5Z" transform="translate(-9487.048 -5137.016)" fill="#fff"/>
    <path id="Path_268" data-name="Path 268" d="M10072.8,4230.5h111.982v-65.3H10072.8Z" transform="translate(-9259.396 -3837.344)" fill="#74b2e8"/>
    <path id="Path_269" data-name="Path 269" d="M9110.652,4436.384H9077.94V4411.5h32.712Zm-35.374-27.554v30.222h38.041V4408.83Z" transform="translate(-8347.948 -4062.25)" fill="#acd5f4"/>
    <path id="Path_270" data-name="Path 270" d="M9205.814,4485.63a3.113,3.113,0,1,1-3.114-3.111A3.113,3.113,0,0,1,9205.814,4485.63Z" transform="translate(-8463.185 -4130.431)" fill="#acd5f4"/>
    <path id="Path_271" data-name="Path 271" d="M9160.041,4545.9l-7.471-5.823-9.952,8.176-7.115-2.842-4.973,2.25v8.238h29.511Z" transform="translate(-8399.016 -4183.354)" fill="#acd5f4"/>
    <path id="Path_272" data-name="Path 272" d="M10624.846,4436.384h-32.709V4411.5h32.709Zm-35.377-27.554v30.222h38.044V4408.83Z" transform="translate(-9736.177 -4062.25)" fill="#acd5f4"/>
    <path id="Path_273" data-name="Path 273" d="M10720.013,4485.63a3.111,3.111,0,1,1-3.112-3.111A3.11,3.11,0,0,1,10720.013,4485.63Z" transform="translate(-9850.901 -4130.431)" fill="#acd5f4"/>
    <path id="Path_274" data-name="Path 274" d="M10674.3,4545.9l-7.464-5.823-9.959,8.176-7.11-2.842-4.973,2.25v8.238h29.506Z" transform="translate(-9787.234 -4183.354)" fill="#acd5f4"/>
    <path id="Path_275" data-name="Path 275" d="M6793.858,4139.678v-3.331a1.876,1.876,0,0,0-1.875-1.877h-26.736a1.879,1.879,0,0,0-1.878,1.877v17.075a1.877,1.877,0,0,0,1.878,1.875h26.736a1.874,1.874,0,0,0,1.875-1.875v-3.34l10.1,5.021v-20.443l-10.1,5.019Z" transform="translate(-6221.27 -3809.576)" fill="#fff"/>
    <path id="Path_276" data-name="Path 276" d="M6781.571,3971.9a6.411,6.411,0,1,0-6.412-6.412A6.41,6.41,0,0,0,6781.571,3971.9Z" transform="translate(-6232.692 -3648.058)" fill="#fff"/>
    <path id="Path_277" data-name="Path 277" d="M6959.81,3971.9a6.411,6.411,0,1,0-6.411-6.412A6.411,6.411,0,0,0,6959.81,3971.9Z" transform="translate(-6396.662 -3648.058)" fill="#fff"/>
    <path id="Path_278" data-name="Path 278" d="M3020.891,1894.11s34.413.073,47.693.274c9.189.137,10.031-12.964,6.4-14.936-11-5.992-45.344-9.068-45.344-9.068l-23.353,21.448s1.311-.034,14.6,2.283Z" transform="translate(-2765.035 -1723.483)" fill="#2c7eea"/>
    <path id="Path_279" data-name="Path 279" d="M3583.137,1265.564s8.843-2.477,12.7,9.077c5.909,17.731,5.388,33.988,4.564,37.455-.381,1.6-1.514,7.1-11.4,7.318-4.007.085-2.4-8.505-2.4-8.505a186.411,186.411,0,0,1-5.311-19.64C3578.544,1278.931,3583.137,1265.564,3583.137,1265.564Z" transform="translate(-3293.657 -1165.912)" fill="#e8502e"/>
    <path id="Path_280" data-name="Path 280" d="M2970.593,1179.621l-22.693-7.337-17.174-1.154-18.814,5.7s-6.16,4.244-.445,17.886,3.518,35.014,3.518,35.014l48.548,1.554a395.678,395.678,0,0,1,4.133-39.519c.716-4.412.8-9.6,2.926-12.14Z" transform="translate(-2675.675 -1079.095)" fill="#ff6440"/>
    <path id="Path_281" data-name="Path 281" d="M3272.767,1247.327h2.472a205.707,205.707,0,0,0-.38-57.777q-1.12.668-2.24,1.334c.623,19.442-.444,38.885.146,56.443Z" transform="translate(-3010.636 -1096.073)" fill="#e8502e"/>
    <path id="Path_282" data-name="Path 282" d="M3190.737,976.27c-.334,2.627-2.477,4.9-4.726,5.005H3179.6c-2.255-.105-4.4-2.378-4.734-5.005q-.781-6.488-1.573-12.98c-.353-2.593,1.188-7.8,4.6-9.338a12.251,12.251,0,0,1,9.821,0c3.408,1.537,4.956,6.746,4.6,9.338q-.789,6.492-1.58,12.98Z" transform="translate(-2919.109 -879.513)" fill="#e2c59c"/>
    <path id="Path_283" data-name="Path 283" d="M3155.923,1210.212l-4.072,6.679-7.462-9.335,1.17-4.9,2.423-1.99.034,3.7Z" transform="translate(-2892.64 -1108.123)" fill="#e8502e"/>
    <path id="Path_284" data-name="Path 284" d="M3300.2,1209.769l4.072,6.679,6.941-8.693-1.139-5.329-1.74-2.246-.708,4.363Z" transform="translate(-3035.98 -1107.68)" fill="#e8502e"/>
    <path id="Path_285" data-name="Path 285" d="M3164.619,859.56a5.117,5.117,0,0,0-4.292,2.321h-1.762a3.976,3.976,0,0,0-3.976,3.976v9.822h2.8v-3.992a2.8,2.8,0,0,1,2.795-2.8h.756a5.13,5.13,0,0,0,5.131-5.131v-4.2h-1.453Z" transform="translate(-2902.023 -793.356)" fill="#163f59"/>
    <path id="Path_286" data-name="Path 286" d="M3159.663,1051.292a2.434,2.434,0,0,1-2.436,2.434h-.2a2.433,2.433,0,0,1-2.432-2.434v-2.956a2.437,2.437,0,0,1,2.432-2.437h.2a2.447,2.447,0,0,1,2.23,1.453Z" transform="translate(-2902.083 -965.31)" fill="#e2c59c"/>
    <path id="Path_287" data-name="Path 287" d="M3256.32,863.463v-3.9h8.423a5.133,5.133,0,0,1,5.133,5.132v3.9h-8.429A5.13,5.13,0,0,1,3256.32,863.463Z" transform="translate(-2995.589 -793.356)" fill="#163f59"/>
    <path id="Path_288" data-name="Path 288" d="M3189.653,910.627c-.01,2.04-1.567,5.5-4.152,6.587a14.9,14.9,0,0,1-11.179,0c-2.59-1.091-4.14-4.542-4.154-6.586V893.251c-.013-2.051,2.036-3.781,4.563-3.831h10.36c2.528.048,4.578,1.775,4.562,3.831v17.375Z" transform="translate(-2916.279 -820.911)" fill="#e9d6b8"/>
    <path id="Path_289" data-name="Path 289" d="M3271.134,859.56a5.114,5.114,0,0,1,4.289,2.321h1.765a3.977,3.977,0,0,1,3.976,3.976v9.822h-2.8v-3.992a2.8,2.8,0,0,0-2.8-2.8h-3.578a5.128,5.128,0,0,1-5.128-5.131v-4.2h4.273Z" transform="translate(-3005.278 -793.356)" fill="#163f59"/>
    <path id="Path_290" data-name="Path 290" d="M3386.93,1048.334a2.435,2.435,0,0,1,2.435-2.434h.2a2.434,2.434,0,0,1,2.435,2.434v2.958a2.435,2.435,0,0,1-2.435,2.433h-.2a2.444,2.444,0,0,1-2.232-1.449l-.2-3.942Z" transform="translate(-3115.826 -965.31)" fill="#e9d6b8"/>
    <path id="Path_291" data-name="Path 291" d="M3163.255,864.482a5.171,5.171,0,0,0,.1-1.008v-3.9h-3.631a5.131,5.131,0,0,0-5.135,5.131v3.9h3.637a5.2,5.2,0,0,0,1.054-.11A5.121,5.121,0,0,1,3163.255,864.482Z" transform="translate(-2902.049 -793.366)" fill="#163f59"/>
    <path id="Path_292" data-name="Path 292" d="M2679.932,2931.093c-.531.639-.143,2.33-.143,2.33s9.262,1.032,12.244.33a15.674,15.674,0,0,0,3.314-1.553c.207-.117.573-.83.778-.95.373-.221.568.149.886-.051a11.158,11.158,0,0,0,1.417-.977c.811-4.247-.27-5.961-.27-5.961s-7.891-2.621-9.37-.794c-3.476,4.306-7.7,6.219-8.855,7.628Z" transform="translate(-2465.05 -2693.265)" fill="#161711"/>
    <path id="Path_293" data-name="Path 293" d="M3804.62,2921.879l.641,7,7.007.683s.484-.93,1.074-.877c.5.05,1.052,1.089,1.732,1.155,1.473.144,3.1.3,3.762.367,1.313.133,14.057,1.376,14.057,1.376s.46-1.414.12-1.946a6.846,6.846,0,0,0-2.059-1.133c-3.523-1.37-13.567-5.559-15.032-9.192-1.777-4.42-11.3,2.572-11.3,2.572Z" transform="translate(-3499.814 -2688.659)" fill="#161711"/>
    <path id="Path_294" data-name="Path 294" d="M3384.285,1822.6l-23.686,9.673s16.8,2.4,27.3.252c7.107-1.447-3.294-10.236-3.619-9.927Z" transform="translate(-3091.354 -1679.511)" fill="#e9d6b8"/>
    <path id="Path_295" data-name="Path 295" d="M2729.392,1991.626s-2.279,21.627-1.953,33.064c.243,8.622.271,25.152-1.781,39.242-.129.86-11.147.211-11.147.211s-3.955-53.618-5.125-62.449,2.24-15.205,20.007-10.067Z" transform="translate(-2492.202 -1833.201)" fill="#2c7eea"/>
    <path id="Path_296" data-name="Path 296" d="M3700.108,2035.829s-3.551,5.605-13.289,6.932c-3.521.48,5.675,62.767,5.675,62.767l14.388-4.606-2.78-68.882Z" transform="translate(-3390.799 -1872.129)" fill="#1f6cd1"/>
    <path id="Path_297" data-name="Path 297" d="M2792.042,1893.146s-18.809,2.687-31.365,4c-4.6.482-8.588-12.4-9.122-12.961a9.469,9.469,0,0,0-6.56-3.2c2.72-2.943,16.8-5.671,31.525-9.122s16.963-1.279,16.963-1.279l-1.441,22.563Z" transform="translate(-2524.906 -1723.033)" fill="#1f6cd1"/>
    <path id="Path_298" data-name="Path 298" d="M2776.52,1871.864c-14.721,3.451-28.8,6.179-31.525,9.122a9.462,9.462,0,0,1,6.56,3.2c.146.154.994,4.28,1.6,5.76-2.4-4.319,32.193-16.515,39.669-19.67-1.4-.446-5.464-.954-16.3,1.588Z" transform="translate(-2524.912 -1723.07)" fill="#2c7eea"/>
    <path id="Path_299" data-name="Path 299" d="M2850.283,2121.031l-1.443,42.087-1.438,9.76-.161-9.76.319-6.083-3.358-9.442-1.761-21.924,2.563.959-.323-9.6Z" transform="translate(-2614.896 -1950.543)" fill="#1f6cd1"/>
    <path id="Path_300" data-name="Path 300" d="M3794.9,2013.38l3.523.962,1.281,50.569-7.364,18.082,3.523-12.325-1.442-25.441s-5.12,12.319-5.12,11.682,4.321-26.726,4.321-26.726-4.8,4-4.321,3.842,2.882-18.244,5.6-20.644Z" transform="translate(-3485.897 -1854.965)" fill="#2c7eea"/>
    <path id="Path_301" data-name="Path 301" d="M2688.638,1228.516s-7.56-5.923-14.96,5.072c-10.84,16.11-15.544,33.252-17.27,38.212-1.318,3.8-.59,14.554,3.843,18.986,1.066,1.067,7.468.214,7.468.214l4.2-2.908-1.76-3.38-.092-2.674s5.372-12.961,11.97-25.214S2688.638,1228.516,2688.638,1228.516Z" transform="translate(-2443.014 -1130.479)" fill="#ff6440"/>
    <path id="Path_302" data-name="Path 302" d="M2819.064,1885.6l24.549,1.282s-23.644,10.847-24.426,8.98c-4.43-10.594-.122-10.262-.122-10.262Z" transform="translate(-2591.507 -1737.569)" fill="#e9d6b8"/>
    <path id="Path_303" data-name="Path 303" d="M3013.92,1867.472c1.433-.687,1.307-.7,1.307-.7a5.873,5.873,0,0,0,3.209,1.85c.944.144,3.988.185,3.988.185l4.522.112,2.1-.121a3.857,3.857,0,0,1,1.5.047c.912.585.132,1.055.132,1.055l-8.1,1.149,7.788.963s.977.29,1.02.821c.045.495-.283.479-.283.479l-9.045.965,3.967.946s.948.307,1.021.821c.078.563.114.711.114.711l-8.315-.813s-6.352-7.777-4.918-8.467Z" transform="translate(-2772.366 -1720.226)" fill="#e9d6b8"/>
    <path id="Path_304" data-name="Path 304" d="M3122.618,1940.74l5.444.993a4.528,4.528,0,0,1,1.795.485.729.729,0,0,1,.261,1.017l-8.348-.7Z" transform="translate(-2871.859 -1788.419)" fill="#e9d6b8"/>
    <path id="Path_305" data-name="Path 305" d="M2996.723,1977.087l.027-.049-.027-1.548h-48.363v1.6l.165.29c.824,1.344,2.3,1.583,4,1.583h40.045c1.692,0,3.17-.239,3.994-1.583l.163-.29Z" transform="translate(-2711.969 -1820.434)" fill="#b6c2c9"/>
    <path id="Path_306" data-name="Path 306" d="M3054.35,1981.233h32.023v-1.093H3054.35Z" transform="translate(-2809.62 -1824.73)" fill="#879ba6"/>
    <path id="Path_307" data-name="Path 307" d="M2997.136,1580.571l.131-31.707a1.507,1.507,0,0,0-1.508-1.514h-45.269a1.519,1.519,0,0,0-1.52,1.514l-.131,31.707h48.3Z" transform="translate(-2712.411 -1425.815)" fill="#e4eef3"/>
    <path id="Path_308" data-name="Path 308" d="M3230.421,1727.479a2.948,2.948,0,0,1-2.944,2.933,2.931,2.931,0,1,1,2.944-2.933Z" transform="translate(-2966.445 -1589.202)" fill="#b6c2c9"/>
    <path id="Path_309" data-name="Path 309" d="M2780.134,1881.474l-1.684-10.76,2.794-2.874,6.2.987-1.268,11.917Z" transform="translate(-2556.02 -1721.194)" fill="#e8502e"/>
    <path id="Path_310" data-name="Path 310" d="M3638.393,1812.959l.644-3.96-7.844-7.038-4.242,1.915,5.549,10.618Z" transform="translate(-3336.56 -1660.498)" fill="#ff6440"/>
    <path id="Path_311" data-name="Path 311" d="M1711.53,825.9v47.326a6.345,6.345,0,0,0,6.344,6.344h59.88a6.344,6.344,0,0,0,6.345-6.344V859.07l3.172-3.172,6.346-6.34-6.346-6.341-3.172-3.171V825.9a6.344,6.344,0,0,0-6.345-6.344h-59.88a6.345,6.345,0,0,0-6.344,6.344Z" transform="translate(-1579.396 -756.444)" fill="#2c7eea"/>
    <path id="Path_312" data-name="Path 312" d="M1907.239,1085.929v.115l9.228,3.886v5.188l-14.147-6.988v-4.4l14.147-6.968v5.169Z" transform="translate(-1755.456 -993.788)" fill="#fff"/>
    <path id="Path_313" data-name="Path 313" d="M2114.016,999.906h-3.906l8.269-30.266h3.945Z" transform="translate(-1947.204 -894.938)" fill="#fff"/>
    <path id="Path_314" data-name="Path 314" d="M2308.9,1085.968v-.115l-9.32-3.944v-5.149l14.261,6.968v4.4l-14.261,6.988v-5.149Z" transform="translate(-2122.047 -993.788)" fill="#fff"/>
    <path id="Path_315" data-name="Path 315" d="M4415.533,1317.53h-50.206a5.58,5.58,0,0,0-5.578,5.579v39.048a5.578,5.578,0,0,0,5.578,5.578h16.747l2.79,2.79,5.575,5.578,5.576-5.578,2.79-2.79h16.73a5.577,5.577,0,0,0,5.578-5.578v-39.048a5.579,5.579,0,0,0-5.578-5.579Z" transform="translate(-4010.015 -1213.974)" fill="#3dc7c9"/>
    <path id="Path_316" data-name="Path 316" d="M4542.908,1443.043a6.926,6.926,0,0,1-4.007-2.946,9.424,9.424,0,0,1-1.2-4.881v-3.467a4.952,4.952,0,0,0-.571-2.583,1.9,1.9,0,0,0-1.734-.934v-3.4a1.9,1.9,0,0,0,1.734-.927,4.944,4.944,0,0,0,.571-2.591v-3.484a9.406,9.406,0,0,1,1.2-4.89,6.94,6.94,0,0,1,4.007-2.937l.892,2.642a2.88,2.88,0,0,0-1.45,1.843,11.694,11.694,0,0,0-.4,3.342v3.484a6.744,6.744,0,0,1-.691,3.106,4.892,4.892,0,0,1-2.087,2.112,5.086,5.086,0,0,1,2.079,2.13,6.633,6.633,0,0,1,.7,3.089v3.467a11.81,11.81,0,0,0,.394,3.333,2.832,2.832,0,0,0,1.458,1.834l-.892,2.66Z" transform="translate(-4172.323 -1299.27)" fill="#fff"/>
    <path id="Path_317" data-name="Path 317" d="M4858.519,1440.392a2.932,2.932,0,0,0,1.466-1.834,11.145,11.145,0,0,0,.418-3.333v-3.467a6.763,6.763,0,0,1,.69-3.1,4.86,4.86,0,0,1,2.121-2.114,4.766,4.766,0,0,1-2.121-2.094,6.812,6.812,0,0,1-.69-3.123v-3.484a11.286,11.286,0,0,0-.418-3.342,2.937,2.937,0,0,0-1.466-1.843l.893-2.643a6.971,6.971,0,0,1,4,2.938,9.349,9.349,0,0,1,1.2,4.89v3.484a4.982,4.982,0,0,0,.564,2.6,1.93,1.93,0,0,0,1.776.917v3.4a1.924,1.924,0,0,0-1.776.925,4.991,4.991,0,0,0-.564,2.593v3.467a9.365,9.365,0,0,1-1.2,4.881,6.968,6.968,0,0,1-4,2.946l-.893-2.661Z" transform="translate(-4469.574 -1299.278)" fill="#fff"/>
    <path id="Path_318" data-name="Path 318" d="M9981.238.01c23.819.1,43.953,21.933,47.714,50.143a26.111,26.111,0,0,1,8.637-1.458c17.725.076,32.469,17.8,32.939,39.571.032,1.586-.027,3.134-.139,4.672,7.911.32,14.419,8.3,14.63,18.084.215,9.976-6.19,18.03-14.3,17.992-.42,0-.83-.044-1.241-.085l-25.909-.032-28.178-.124-12.668-.056-14.145-.063-48.359-.212c-15.865-.07-29.07-15.935-29.492-35.438-.395-18.137,10.41-33.017,24.689-34.963-.7-32.327,19.819-58.146,45.823-58.032Z" transform="translate(-9109.824 1)" fill="#fff"/>
    <path id="Path_319" data-name="Path 319" d="M3807.481,4844.173c-5.47,1.376-15.555,6.282-17.668,14.666-3.169,12.593,3.173,31.079-6.867,49.158-3.2,5.768,55.457,13.513,55.457,13.513l11.319-63.624s-14.139-13.81-17.031-14.743c-5.989-1.924-14.278-1.719-25.211,1.03Z" transform="translate(-3479.297 -4460.496)" fill="#bcd0e2"/>
    <path id="Path_320" data-name="Path 320" d="M4455.807,5048.17c2.039,5.087,7.182,35.333,1.447,42.463-.661.824,2.976,2.112,2.317,5.87-.108.631-1.2,3.633-1.2,3.633l-4.689,1.219-14.167-8.065,2.717-3.3,1.28.026a2.893,2.893,0,0,0,.876-2.52c-.334-1.386,3.249-3.643,8.667-27.116,1.593-6.907,2.307-13.326,2.756-12.208Z" transform="translate(-4083.95 -4650.846)" fill="#b0bfde"/>
    <path id="Path_321" data-name="Path 321" d="M4498.127,5566.932l-4.188-.925-1.7-.268a3.115,3.115,0,0,1-.933,2.006l3.246.1,3.81.817,4.6,2.621Z" transform="translate(-4131.72 -5128.533)" fill="#dbdac6"/>
    <path id="Path_322" data-name="Path 322" d="M4486.679,5631.8a12.559,12.559,0,0,1,6,1.658c2.1,1.295,4.033,4.107,2.1,5.627a31.186,31.186,0,0,1-4.905,2.945S4482.5,5642.232,4486.679,5631.8Z" transform="translate(-4126.299 -5189.335)" fill="#c4d1e1"/>
    <path id="Path_323" data-name="Path 323" d="M4433.96,5718.928l-1.976-.421s-6.792-.62-7.759-.09-4.083,2.642-4.083,2.642l-.643.588a3.291,3.291,0,0,0,3.564-.483c2.047-1.435,2.219-.333,2.219-.333l-.346,1.813.027,2.311-.314.973s-.288.532-.065.725a1.294,1.294,0,0,0,1.291.295l2.07-3.613.562,3.926a1.427,1.427,0,0,0,.928.673c.608.129.611-.033.611-.033l.469-1a1.233,1.233,0,0,0,.411.686,2,2,0,0,0,1.232.346l-.192-4.134.847,2.1a1.558,1.558,0,0,0,.929.671c.685.161.872.215.872.215l-.648-7.858Z" transform="translate(-4065.614 -5267.203)" fill="#e4eef3"/>
    <path id="Path_324" data-name="Path 324" d="M3936.165,5461.227s4.931,12.5,16.784,15.839c2.053.581,3.312,2.8,2.324,3.512-1.267.909-3.006,1.105-5.979,1.1-6.2-.017-14.628-1.944-20.462-7.588-8.639-8.355-11.357-12.154-10.48-16.362S3936.165,5461.227,3936.165,5461.227Z" transform="translate(-3604.182 -5027.569)" fill="#e9d6b8"/>
    <path id="Path_325" data-name="Path 325" d="M3848.089,4956.287c-2.5,4.122-3.96,10.748-3.941,20.227.019,7.334,6.349,19.35,7.318,23.043.164.621.549,3.26.549,3.26l7.014,6.884,14.076-9.536-4.278-6.566-1.279.134a21.917,21.917,0,0,1-.592-5.034c.222-1.408-3.894-20.334-5.931-32.463-1.175-6.988-10.446-4.037-12.935.052Z" transform="translate(-3536.171 -4562.329)" fill="#b0bfde"/>
    <path id="Path_326" data-name="Path 326" d="M4005.161,5468.953l4.1-1.271,1.668-.412a3.11,3.11,0,0,0,1.1,1.92l-3.226.371-3.726,1.141-4.36,3,4.451-4.747Z" transform="translate(-3680.403 -5037.79)" fill="#bcd0e2"/>
    <path id="Path_327" data-name="Path 327" d="M4346.966,5699.254l7.169-1.964s2.03,2.725,1.645,3.4.007,4.711.007,4.711l-3.474,2.948-2.827-.938s-.194-1.227.773-1.35-.653-.822-1.163-1.11S4344.437,5702.518,4346.966,5699.254Z" transform="translate(-3998.213 -5247.904)" fill="#e9d6b8"/>
    <path id="Path_328" data-name="Path 328" d="M4203.593,4700.068a2.188,2.188,0,0,0,1.337,2.779l8.22,2.881a2.186,2.186,0,0,0,2.779-1.336l5.074-14.486a2.187,2.187,0,0,0-1.337-2.778l-8.218-2.883a2.188,2.188,0,0,0-2.78,1.335l-5.076,14.489Z" transform="translate(-3866.852 -4316)" fill="#e2c59c"/>
    <path id="Path_329" data-name="Path 329" d="M4231.223,4680.928a2.829,2.829,0,0,1-3.477,1.973l-12.273-3.382a2.827,2.827,0,0,1-1.973-3.478l5.007-18.177a2.827,2.827,0,0,1,3.478-1.971l12.269,3.378a2.832,2.832,0,0,1,1.977,3.479l-5.008,18.178Z" transform="translate(-3875.915 -4289.825)" fill="#e9d6b8"/>
    <path id="Path_330" data-name="Path 330" d="M4486.966,4714.316a10.773,10.773,0,0,0,2.733-2.3,4.225,4.225,0,0,0-.8-3.887c-1.145-1.172-2.687-.008-2.687-.008s1.844,1.813,1.832,2.3S4486.966,4714.316,4486.966,4714.316Z" transform="translate(-4127.132 -4337.821)" fill="#163f59"/>
    <path id="Path_331" data-name="Path 331" d="M4234.2,4618.391s.07-7.5.975-9.449,1.523-3.31,4.087-2.845c3.832.69,3.66,1.5,5.791.861s6.151-2.474,7.349-2.436c2,.063,4.765,1.5,3.908,5.053a4.052,4.052,0,0,0,.758,3.791c-.233.278-1,.389-2.353.654-3.876.767-6.016.545-8.439-.857s-6.884-4.221-7.982-2.446-2.5,7.747-2.853,8.138-.879,0-1.242-.465Z" transform="translate(-3895.052 -4242.748)" fill="#194866"/>
    <path id="Path_332" data-name="Path 332" d="M4210.978,4787.644a.942.942,0,0,1-1.161.657l-2.651-.731a.938.938,0,0,1-.658-1.156l1.336-4.848a.941.941,0,0,1,1.16-.658l2.65.729a.942.942,0,0,1,.657,1.157l-1.334,4.849Z" transform="translate(-3869.76 -4405.322)" fill="#e9d6b8"/>
    <path id="Path_333" data-name="Path 333" d="M4415.756,4844.075a.946.946,0,0,1-1.162.66l-2.647-.732a.941.941,0,0,1-.661-1.157l1.337-4.851a.94.94,0,0,1,1.157-.656l2.651.73a.943.943,0,0,1,.659,1.158Z" transform="translate(-4058.147 -4457.318)" fill="#e9d6b8"/>
    <path id="Path_334" data-name="Path 334" d="M4209.492,4808.97s-1.977,7.154-2.633,9.544c-.591,2.155-1.038,7.125,11.146,10.479,7.212,1.989,8.408-3.385,8.89-5.123a16.078,16.078,0,0,0-.594-6.684l-.814,2.953a5.974,5.974,0,0,0-4.135-4.237c-5.532-1.521-7.677,1.367-10.1.641-1.86-.565-2.428-4.012-1.756-7.574Z" transform="translate(-3869.714 -4431.047)" fill="#194866"/>
    <path id="Path_335" data-name="Path 335" d="M4342.913,4931.282l3.787,1.04a.937.937,0,0,0,1.159-.658l.146-.527-5.6-1.548-.145.532A.941.941,0,0,0,4342.913,4931.282Z" transform="translate(-3994.643 -4542.41)" fill="#e9d6b8"/>
    <path id="Path_336" data-name="Path 336" d="M3784.611,5598.065c-1.746,4.828-32.355,22.6-42.615,21.55l-30.916,1.472c-26.292-3.209-38.731-44.061-38.731-44.061,1.048-10.255,26.947,4.615,36.178,9.218,14.622,7.3,23.867,7.664,23.867,7.664,9.778,1,21.116-6.541,33.462-6.806C3779.417,5586.815,3787.362,5590.452,3784.611,5598.065Z" transform="translate(-3377.098 -5133.664)" fill="#081832"/>
    <path id="Path_337" data-name="Path 337" d="M4254.981,5800.768l-.021-.042v-1.288l53.213-.969.024,1.285v.042l-.13.243c-.662,1.128-1.888,1.351-3.293,1.377l-46.3.842c-1.409.029-2.638-.15-3.34-1.254l-.145-.236Z" transform="translate(-3913.744 -5341.272)" fill="#b6c2c9"/>
    <path id="Path_338" data-name="Path 338" d="M4273.811,5815.586v.036l-.126.2a2.207,2.207,0,0,1-.768.669l-8.092.147c-1.351.023-2.532-.114-3.207-1.005l-.135-.191-.022-.037,0-.626,12.327-.226.021,1.036Z" transform="translate(-3920.264 -5356.111)" fill="#d8e5ed"/>
    <path id="Path_339" data-name="Path 339" d="M4514.2,5805.3l26.59-.484-.017-.905-26.588.485Z" transform="translate(-4152.556 -5346.293)" fill="#879ba6"/>
    <path id="Path_340" data-name="Path 340" d="M4424.879,5469.852l6.422-26.278a1.746,1.746,0,0,1,1.559-1.275l37.331-.682a.929.929,0,0,1,.943,1.231l-6.423,26.275Z" transform="translate(-4070.137 -5013.836)" fill="#d9e1e4"/>
    <path id="Path_341" data-name="Path 341" d="M4694.271,5595.354a1.8,1.8,0,0,0,1.822,2.386,3.361,3.361,0,0,0,3.011-2.472,1.8,1.8,0,0,0-1.823-2.385,3.359,3.359,0,0,0-3.01,2.471Z" transform="translate(-4318.456 -5153.554)" fill="#b6c2c9"/>
    <path id="Path_342" data-name="Path 342" d="M4058.623,6084.454c3.685.63,6.493-3.65,6.493-3.65l9.511-7.487-2.009-5.067-18.528,8.331S4054.94,6083.823,4058.623,6084.454Z" transform="translate(-3729.397 -5590.226)" fill="#e9d6b8"/>
    <path id="Path_343" data-name="Path 343" d="M3809.359,6152.986a9.6,9.6,0,0,1-.7,2.4c-.712,1.949-1.581,2.63-2.5,2.9-3.552,1.045-6.11.515-14.654,2.164s-11.1.407-13.605-3.53.094-7.025,4.263-7.347c6.029-.456,9.385.232,12.526-.245,3.292-.5,3.5-1.236,5.423-2.419,1.809-1.111,3.469,5.5,1.76,7.033C3800.367,6155.284,3808.078,6155.492,3809.359,6152.986Z" transform="translate(-3474.289 -5662.692)" fill="#194866"/>
    <path id="Path_344" data-name="Path 344" d="M3807.539,6203.655c-3.554,1.045-6.114.517-14.655,2.163s-11.105.406-13.607-3.53c-1.156-1.824-1.212-3.448-.537-4.718-1.878,1.293-2.522,3.555-.831,6.216,2.5,3.937,5.062,5.176,13.605,3.53s11.1-1.118,14.654-2.163a3.289,3.289,0,0,0,1.984-1.76,2.95,2.95,0,0,1-.614.263Z" transform="translate(-3474.312 -5709.561)" fill="#fff"/>
    <path id="Path_345" data-name="Path 345" d="M4196.073,6227.287l.011-.119-.084.13Z" transform="translate(-3860.196 -5736.875)" fill="#e9d6b8"/>
    <path id="Path_346" data-name="Path 346" d="M3936.723,6183.434c-.278.1-.521-.413-.605-1.143a20.6,20.6,0,0,0-.988-4.4c-.249-.719-.241-1.357.059-1.438s.78.435,1.018,1.139a20.606,20.606,0,0,1,.935,4.352C3937.213,6182.665,3937,6183.331,3936.723,6183.434Z" transform="translate(-3620.016 -5690.066)" fill="#fff"/>
    <path id="Path_347" data-name="Path 347" d="M3970.969,6182.184c-.292.06-.553-.449-.632-1.128a18.7,18.7,0,0,0-.979-4.141c-.24-.68-.224-1.267.093-1.306s.813.471,1.042,1.146a18.412,18.412,0,0,1,.92,4.1c.069.673-.16,1.265-.444,1.333Z" transform="translate(-3651.515 -5689.293)" fill="#fff"/>
    <path id="Path_348" data-name="Path 348" d="M4003.526,6178.108c-.3.04-.591-.5-.7-1.2a21.092,21.092,0,0,0-1.156-4.271c-.269-.7-.271-1.293.063-1.31s.851.535,1.116,1.229a20.554,20.554,0,0,1,1.1,4.229c.1.692-.11,1.287-.417,1.325Z" transform="translate(-3681.205 -5685.34)" fill="#fff"/>
    <path id="Path_349" data-name="Path 349" d="M4121.229,5797.94s65.391-26.882,69.126-26.92c12.632-.121,9.734,12.661,3.334,18.677-7.549,7.094-64.958,20.074-64.958,20.074Z" transform="translate(-3790.4 -5315.941)" fill="#163f59"/>
    <path id="Path_350" data-name="Path 350" d="M4243.879,5887.87l-17.85-16.926,7.605-7.534,19.493,20.488Z" transform="translate(-3887.481 -5401.199)" fill="#e9d6b8"/>
    <path id="Path_351" data-name="Path 351" d="M3728.927,5484.33s-45.429-41.642-48.492-42.886c-10.371-4.208-16.8,7.243-16.433,11.2.473,5.127,46.627,46.834,46.627,46.834l18.3-15.147Z" transform="translate(-3370.023 -5010.966)" fill="#194866"/>
    <path id="Path_352" data-name="Path 352" d="M4449.44,6093.728c1.06.981,1.243,3.867,1.243,3.867s-15.16,5.733-20.485,5.838a27.308,27.308,0,0,1-6.254-1.187c-.406-.113-1.328-1.151-1.718-1.266-.725-.213-.891.492-1.515.292a18.426,18.426,0,0,1-2.808-1.032c-3.2-6.807-2.118-10.162-2.118-10.162s6.965,2,5.773.438c-2.551-3.334,4.748-6.748,6.372-4.971,6.491,7.1,18.435,5.345,21.512,8.185Z" transform="translate(-4061.767 -5605.734)" fill="#194866"/>
    <path id="Path_353" data-name="Path 353" d="M4462.172,6215.69c-4.662,1.852-14.457,5.675-16.4,5.812-7.979.566-13.551-2.268-17.28-3.935a30.911,30.911,0,0,0,1.3,3.22,18.169,18.169,0,0,0,2.807,1.032c.624.2.79-.506,1.514-.292.39.114,1.312,1.152,1.719,1.266a27.3,27.3,0,0,0,6.254,1.188c5.324-.1,20.485-5.84,20.485-5.84a10.471,10.471,0,0,0-.4-2.452Z" transform="translate(-4073.625 -5726.282)" fill="#fff"/>
    <path id="Path_354" data-name="Path 354" d="M4628.72,6154.9c.14.262-.453.572-1.3.752a28.7,28.7,0,0,0-5.12,1.55c-.831.34-1.585.414-1.7.126s.46-.842,1.277-1.166a28.544,28.544,0,0,1,5.065-1.492C4627.779,6154.5,4628.58,6154.634,4628.72,6154.9Z" transform="translate(-4250.692 -5669.905)" fill="#fff"/>
    <path id="Path_355" data-name="Path 355" d="M4587.875,6139.88c.127.271-.453.651-1.281.888a29.464,29.464,0,0,0-4.945,1.949c-.8.4-1.522.522-1.627.22s.439-.91,1.231-1.3a29.007,29.007,0,0,1,4.9-1.882c.823-.229,1.592-.144,1.724.121Z" transform="translate(-4213.368 -5656.091)" fill="#fff"/>
    <path id="Path_356" data-name="Path 356" d="M4548.746,6126.478c.125.28-.44.718-1.246,1.022a29.289,29.289,0,0,0-4.767,2.322c-.77.458-1.469.624-1.566.305s.425-.979,1.183-1.424a29.048,29.048,0,0,1,4.733-2.256C4547.883,6126.155,4548.63,6126.193,4548.746,6126.478Z" transform="translate(-4177.629 -5643.743)" fill="#fff"/>
    <path id="Path_357" data-name="Path 357" d="M9761.9,862.28a10.974,10.974,0,0,0,10.975,10.974l2.745-5.212c6.06,0,10.973-9.132,10.973-15.192v-4.117a10.974,10.974,0,0,0-10.973-10.974h-2.745a10.976,10.976,0,0,0-10.975,10.974Z" transform="translate(-8979.942 -773.239)" fill="#131111"/>
    <path id="Path_358" data-name="Path 358" d="M9860.914,973.515a19.872,19.872,0,0,1,2.27-.175,17.693,17.693,0,0,0,.156,2.852,18.452,18.452,0,0,0,18.85,15.654,18.67,18.67,0,1,1-21.275-18.331Z" transform="translate(-9055.828 -898.352)" fill="#131111"/>
    <path id="Path_359" data-name="Path 359" d="M9782.471,891.71a20.948,20.948,0,0,0,.265,3.091c1.106,7.048,5.391,12.4,10.07,13.057.144,3.192,1.274,5.961,1.557,8.5.61,5.53,6.733,6.121,6.733,6.121.8,4.922-18.557,11.739-18.164,10.946s4.522-6.588,5.874-11.907a10.832,10.832,0,0,0-1.682-8.872,8.984,8.984,0,0,0-6.417-3.036,1.258,1.258,0,0,1-.925-.4,7.793,7.793,0,0,1-.344-2.293v-9.05A7.763,7.763,0,0,1,9782.471,891.71Z" transform="translate(-8996.169 -823.024)" fill="#845d37"/>
    <path id="Path_360" data-name="Path 360" d="M9654.51,1791.034l-.039-.153.091-.12a81.948,81.948,0,0,1,7.351-22.151c2.5-4.823,7.531-9.392,9.75-11.7,5.725,3.122,11.377,1.673,16.727,5.719a49.638,49.638,0,0,1,1.663,7.2c.812,4.67,1.512,9.014,2.114,13.074,8.3.783,28.773,2.352,36.477,3.865,4.565,1.055,4.833,2.827,5.546,3.406-.405,7.448-6.45,11.659-10.111,17.625-.647,1.062-49.925.571-58.071.571-4.366-.038-15.424-2.541-11.5-17.335Z" transform="translate(-8878.65 -1618.797)" fill="#194866"/>
    <path id="Path_361" data-name="Path 361" d="M9903.018,2178.462a32.267,32.267,0,0,0,3.093-5.232c.78-3.33.766-5.569-.19-6.36-3.621-2.992-15.977,3.243-47.053,49.832-6.766,10.145-21.759,31.577-18.3,28C9892.038,2191.46,9896.242,2186.314,9903.018,2178.462Z" transform="translate(-9050.524 -1995.717)" fill="#856543"/>
    <path id="Path_362" data-name="Path 362" d="M9840.443,3031.709l5.509-8.82a2.509,2.509,0,0,1,2.226-1.266l-4.24,6.789a3.082,3.082,0,0,0,.449,3.95,2.055,2.055,0,0,0,1.2.457l-1.264,2.028a2.3,2.3,0,0,1-3.424.81,3.091,3.091,0,0,1-.452-3.948Z" transform="translate(-9052.219 -2784.273)" fill="#163f59"/>
    <path id="Path_363" data-name="Path 363" d="M9736.472,1270.649l10.063-15.571c2.989-4.626,1.221-9.3-3.927-10.389l-29.124-6.146c-3.231-.406-8.415,4.228-7.26,9.73l6.173,17.986,24.075,4.39Z" transform="translate(-8928.059 -1141.28)" fill="#856543"/>
    <path id="Path_364" data-name="Path 364" d="M10156.619,1323.321c-.775,13.866,12.9,36.269,12.9,36.269s5.225.081,5.723-2.318c.629-3.041-3.912-9.381-9.7-27.66C10161.966,1318.3,10156.753,1321,10156.619,1323.321Z" transform="translate(-9336.714 -1217.49)" fill="#163f59"/>
    <path id="Path_365" data-name="Path 365" d="M9502.664,1242.1c-10.31,7.394-17.375,28.686-17.375,28.686s2.32,5.085,4.35,4.064c2.576-1.3,5.743-7.409,14.678-21.974,5.537-9.019.074-12.014-1.653-10.775Z" transform="translate(-8725.586 -1144.327)" fill="#163f59"/>
    <path id="Path_366" data-name="Path 366" d="M9805.5,1570.983c.036,2.083,2.2,5.451,3.785,5.417l15.35.494c1.583-.029,5.388-2.6,5.351-4.683l-.146-7.007c-.04-2.084-1.351-3.747-2.935-3.716l-19.852-4.729c-1.582.03-2.834,1.746-2.795,3.829l1.242,10.393Z" transform="translate(-9018.878 -1434.54)" fill="#0095ef"/>
    <path id="Path_367" data-name="Path 367" d="M9859.5,1798.221c-.017.229-1.114.349-2.463.264l-15.216-.948c-1.344-.082-2.42-.337-2.407-.567l.051-.867c.013-.229,1.115-.346,2.46-.265l15.217.949c1.346.082,2.425.337,2.409.568Z" transform="translate(-9051.39 -1654.879)" fill="#15100c"/>
    <path id="Path_368" data-name="Path 368" d="M9706.223,1308.329a12.027,12.027,0,0,1,1.078-2.749c14.141,10.025,24.146,5.77,31.359,4.071q.1.638.15,1.323c.265,4.985-.091,9.977.115,14.959.2,3.964-5.388,7.435-8.067,7.543-9.986.434-12.257-.162-21.866-2.756-2.578-.7-7.36-4.894-6.361-8.54q1.834-6.906,3.592-13.85Z" transform="translate(-8924.948 -1203.081)" fill="#0095ef"/>
    <path id="Path_369" data-name="Path 369" d="M10064.374,1291.16s10.448-.324,12.28,4.683-2.616,12.294-2.616,12.294-2.652,9.281-3.385,14.316,2.473,9.81,1.481,8.827a20.552,20.552,0,0,1-6.331-1.734c-3.764-1.766-1.677-8.626-1.309-10.842s2.215-13.094,1.8-14.9S10064.374,1291.16,10064.374,1291.16Z" transform="translate(-9257.805 -1189.747)" fill="#194866"/>
    <path id="Path_370" data-name="Path 370" d="M9678.609,1239.145s-.8-4.18.92-5.842c2.537-2.442,8.655-2.112,10.631-1.53a24.812,24.812,0,0,1,3.324,1.219s-6.922,2.794-6.659,17.113a70.889,70.889,0,0,0,1.512,11.243,88.235,88.235,0,0,1,1.115,11.246s-4.133.852-4.324,1.458-.443-4.42-3.261-9.213-3.258-25.694-3.258-25.694Z" transform="translate(-8903.435 -1134.643)" fill="#194866"/>
    <path id="Path_371" data-name="Path 371" d="M9689.212,1231.664c-3.852,3.205-6.186,5.946-5.595,22.6.091,2.7-.042,7.657.489,12.269-.229-.474-.484-.953-.761-1.433-2.813-4.791-3.259-25.694-3.259-25.694s-.486-3.766,1.241-5.429c1.836-1.77,5.222-2.492,7.885-2.311Z" transform="translate(-8905.078 -1134.93)" fill="#163f59"/>
    <path id="Path_372" data-name="Path 372" d="M9893.646,2218.033c1.07-1.693,1.4-3.728,2.059-5.567.152-3.354-.427-5.308-1.348-6.144-4.172-3.791-13.352,3.235-28.211,33.805-7.492,15.41-13.127,28.739-23.25,36.985a7.887,7.887,0,0,0-2.7,3.778c-1.476,4.339-.823,9.745-.641,9.576,7.094-6.492,34.293-41.135,54.091-72.433Z" transform="translate(-9050.116 -2031.732)" fill="#856543"/>
    <path id="Path_373" data-name="Path 373" d="M9801.142,3138.374l4.776-9.24a2.518,2.518,0,0,1,2.118-1.444l-3.682,7.115a3.093,3.093,0,0,0,.768,3.9,2.065,2.065,0,0,0,1.236.358l-1.1,2.124a2.3,2.3,0,0,1-3.348,1.086,3.081,3.081,0,0,1-.771-3.9Z" transform="translate(-9016.215 -2882.002)" fill="#194866"/>
    <path id="Path_374" data-name="Path 374" d="M9467.156,1462.087c-3.713-7.221,3.667-16.208,3.667-16.208s2.5.221,3.474,1.548c1.231,1.675.892,5.223-.4,13.318-.8,5.014-6.117,2.549-6.74,1.341Z" transform="translate(-8708.299 -1332.386)" fill="#163f59"/>
    <path id="Path_375" data-name="Path 375" d="M9507.5,1313.2s1.659.117,3.146-6.839.1-15.049.1-15.049l-3.572,13.57s-1.643,6.131.324,8.317Z" transform="translate(-8745.601 -1189.955)" fill="#856543"/>
    <path id="Path_376" data-name="Path 376" d="M9474.441,1139.805a11.651,11.651,0,0,0-.93-2.33,37.73,37.73,0,0,0-2.518-4.963,30.515,30.515,0,0,1-1.621-3.311c-.339,1.871.687,2.79.874,3.64s.214.531-1.017-.362c-.7-.506-.972-2.533-1.321-3.817a3.572,3.572,0,0,0-.717-1.532,17.542,17.542,0,0,0,.3,3.533,21.679,21.679,0,0,0,1.574,4.794,36.252,36.252,0,0,0,2.851,3.829,7.048,7.048,0,0,1,1.126,5.365c-.309,1.492,1.611-1.912,1.4-4.846Z" transform="translate(-8709.336 -1040.269)" fill="#856543"/>
    <path id="Path_377" data-name="Path 377" d="M9463.458,1163.5a24.933,24.933,0,0,1-2.206-3.326c-.13-.466-.382-2.746-.382-2.746a4.485,4.485,0,0,1,.973,1.83A36.987,36.987,0,0,0,9463.458,1163.5Z" transform="translate(-8703.652 -1068.23)" fill="#856543"/>
    <path id="Path_378" data-name="Path 378" d="M10118.5,2139.965h43.032v-.885H10118.5Z" transform="translate(-9307.402 -1971.183)" fill="#cdd5d7"/>
    <path id="Path_379" data-name="Path 379" d="M10364.5,1873.938a1.171,1.171,0,0,0,1.083,1.245h22.073c.6,0,1.414-.438,2.144-2.18l10.912-19.919a1.136,1.136,0,0,0-1.272-1.248l-22.641.684a2.1,2.1,0,0,0-1.43,1.507l-10.869,19.91Z" transform="translate(-9528.573 -1706.38)" fill="#cdd5d7"/>
    <path id="Path_380" data-name="Path 380" d="M10138.916,2150.54h-21.767a8.011,8.011,0,0,0,3.524.682h36.266a7.984,7.984,0,0,0,3.521-.682Z" transform="translate(-9306.151 -1981.744)" fill="#b7bec0"/>
    <path id="Path_381" data-name="Path 381" d="M10259.426,1292.191a.243.243,0,0,1-.225.259h-1.619v-4.875h1.619a.246.246,0,0,1,.225.262v4.355Zm-.225-6.012h-1.619v-1.129h-10.755v9.521a2.217,2.217,0,0,0,2.041,2.351h6.67a2.218,2.218,0,0,0,2.044-2.351v-.725h1.619a1.564,1.564,0,0,0,1.44-1.654v-4.355A1.565,1.565,0,0,0,10259.2,1286.179Z" transform="translate(-9419.986 -1184.221)" fill="#b0bfde"/>
    <path id="Path_382" data-name="Path 382" d="M10395.511,1357.356c.961-3.64,2.585-7.4,2.286-9.57-.426-3.084-2-4.49-1.459-6.582a6.308,6.308,0,0,0,.1-.7c.079-.628.281-1.32.281-1.583,0-.3-.1-1.145.073-.827,1.564,2.85,3.028,6.185,3.019,6.97-.021,1.614-.519,10.53-1.391,13.8-.979,3.694-4.2,3.4-2.908-1.509Z" transform="translate(-9556.916 -1232.989)" fill="#856543"/>
    <path id="Path_383" data-name="Path 383" d="M10436.4,1356.254s.711.31.982-.229a10.757,10.757,0,0,0,.563-3.6c.006-.794-.58-4.546-.58-4.546a4.451,4.451,0,0,0-.494,2.72,19.075,19.075,0,0,1-.471,5.654Z" transform="translate(-9594.923 -1242.124)" fill="#856543"/>
    <path id="Path_384" data-name="Path 384" d="M10386.59,1454.888a32.57,32.57,0,0,1-3.641-1.7c2.591-9.525,5.218-17.48,5.218-17.48Z" transform="translate(-9545.601 -1323.011)" fill="#856543"/>
    <path id="Path_385" data-name="Path 385" d="M10399.979,1326.845l-.929-5.3-2.071-.5-.711.356-.089.572.216.348c-.3,0-.208.908.049.908a8.9,8.9,0,0,0-.178,1.242c.176.431,1,.356,1.354,1.282s-.141,2,.358,2.07,2-.981,2-.981Z" transform="translate(-9557.81 -1219.218)" fill="#845d37"/>
    <path id="Path_386" data-name="Path 386" d="M10350.022,1645.218c-.133-.784-4.58-1.057-5.092.347l-.517,1.03s-4.074,9.041.776,10.7C10345.19,1657.3,10350.429,1656.919,10350.022,1645.218Z" transform="translate(-9508.564 -1515.479)" fill="#163f59"/>
    <path id="Path_387" data-name="Path 387" d="M5383.24,6967.363c.458-.611.027-2.155.027-2.155s-8.58-.533-11.29.241a14.58,14.58,0,0,0-2.986,1.583c-.187.115-.494.792-.671.91-.333.217-.529-.116-.813.083a9.724,9.724,0,0,0-1.261.965c-.562,3.95.513,5.479.513,5.479s7.127,1.84,8.66.311c3.894-3.875,6.815-6.07,7.821-7.418Z" transform="translate(-4936.363 -6417.77)" fill="#161711"/>
    <path id="Path_388" data-name="Path 388" d="M5940.039,6961.377l1.524,6.3,6.484-.313s.317-.917.863-.944c.461-.026,1.1.848,1.731.818,1.363-.065,2.875-.14,3.483-.169,1.215-.058,13.009-.628,13.009-.628s.227-1.356-.154-1.8a6.336,6.336,0,0,0-2.033-.749c-3.393-.783-13.12-3.256-14.939-6.377-2.216-3.792-9.968,3.863-9.968,3.863Z" transform="translate(-5464.18 -6409.863)" fill="#161711"/>
    <path id="Path_389" data-name="Path 389" d="M5716.532,3740.112l1.55-7.713s5.48.419,6.549-2.531c2.146-5.915.349-15.371-.95-18.017-3.694-7.54-5.257-20.757-22.534-10.253-6.566,4,3.575,23.371,4.334,27.563s-1.491,9.022-1.491,9.022l4.046,3.028,8.5-1.1Z" transform="translate(-5242.409 -3406.908)" fill="#856543"/>
    <path id="Path_390" data-name="Path 390" d="M5401.25,5151.2l-.569,24.319s-9.161-10.107-10.051-21.6S5400.681,5150.3,5401.25,5151.2Z" transform="translate(-4959.005 -4743.07)" fill="#856543"/>
    <path id="Path_391" data-name="Path 391" d="M5387.642,5846.73s2.58.978-3.155,36.653c-4.132,25.69-7.807,44.519-9.546,53.043-.674,3.313-1.635,2.771-1.635,2.771l-7.055,1.129-3.51-2.761,7.339-58.122Z" transform="translate(-4933.157 -5385.807)" fill="#163f59"/>
    <path id="Path_392" data-name="Path 392" d="M6090.232,4898.763l-14.533,27.879s27.735-20.067,25.993-31.1S6090.232,4898.763,6090.232,4898.763Z" transform="translate(-5588.995 -4506.746)" fill="#856543"/>
    <path id="Path_393" data-name="Path 393" d="M5377.1,4344.471s-5.889,3.6-10.129,32.866-1.543,28.149-1.543,28.149l.767,6.667,11.02,1.18,5.948-25.258-6.063-43.6Z" transform="translate(-4934.966 -4002.446)" fill="#007fcf"/>
    <path id="Path_394" data-name="Path 394" d="M5485.761,5101.973s-12.978,68.032-24.268,98.79c-6.616,18.021-8.323-15.868-8.323-15.868l6.875-98.213,33.816-3.282S5490.076,5084.777,5485.761,5101.973Z" transform="translate(-5016.085 -4681.407)" fill="#163f59"/>
    <path id="Path_395" data-name="Path 395" d="M5710.93,5050.223s16.484,86.464,17.968,90.335c5.006,13.078,10.89-4.673,12.218-9.182s2.305-37.418.63-61.328l-1.668-23.9-29.147,4.073Z" transform="translate(-5253.346 -4647.034)" fill="#163f59"/>
    <path id="Path_396" data-name="Path 396" d="M5885.127,5941.526s-1.347,10.474-2.244,23.813c-.661,9.8.649,37.623,3.383,56.855.169,1.18,12.279-3.011,12.279-3.011s1.868-54.308,2.311-66.476-8.441-20.21-15.729-11.182Z" transform="translate(-5411.609 -5469.719)" fill="#163f59"/>
    <path id="Path_397" data-name="Path 397" d="M5522.069,4216.822l14.51-6.586,4-3.783,15.425-.373,2.7,4.449,11.955,5.182s2.947,4.637.381,21.855c-2.841,19.072-3.439,47.911-3.439,47.911l-45.209,2.177S5526.313,4226.083,5522.069,4216.822Z" transform="translate(-5079.299 -3874.777)" fill="#0095ef"/>
    <path id="Path_398" data-name="Path 398" d="M6086.515,4324.909s2.692-3,9.249,5.144c11.171,13.888,16.579,31.111,17.739,34.445s2.636,8.054-1.93,13.6c-3.5,4.237-4.629,5.665-4.629,5.665l-10.03-6.248,1.578-3,1.126-1.492s-5.4-11.854-11.182-22.589-1.921-25.52-1.921-25.52Z" transform="translate(-5597.717 -3984.057)" fill="#0095ef"/>
    <path id="Path_399" data-name="Path 399" d="M5701.315,3671.6s-1.952-1.2-2.255.3.752,4.809,1.65,5.1,1.205,4.355,1.205,4.355l-2.4,4.509h-12.164s-3.76-1.654-4.058-4.354-3.3-21.778-3.3-21.778l8.562-4.51a56.522,56.522,0,0,1,7.657-3.149c4.845-1.386,5.859,1.2,5.707,2.549s1.352,1.5,3.3,1.5,4.355,1.5,3.3,2.4c-.43.373,1.508,1.563.738,3-1.1,2.047-4.793,2.712-5.091,6.015-.137,1.5-.751,6.459-2.854,4.055Z" transform="translate(-5224.923 -3364.606)" fill="#292929"/>
    <path id="Path_400" data-name="Path 400" d="M9352.205,870.628V853.01H9334.59Z" transform="translate(-8587.063 -787.312)" fill="#2c7eea"/>
    <path id="Path_401" data-name="Path 401" d="M8905.148,245.54a6.819,6.819,0,0,0,6.819,6.821H8961.6a6.819,6.819,0,0,0,6.821-6.821v-40.92a6.819,6.819,0,0,0-6.821-6.821h-49.634a6.819,6.819,0,0,0-6.819,6.821Z" transform="translate(-8190.731 -182.686)" fill="#2c7eea"/>
    <path id="Path_402" data-name="Path 402" d="M9332.464,365.224a2.523,2.523,0,1,0,2.524,2.52A2.522,2.522,0,0,0,9332.464,365.224Zm0,7.568a5.046,5.046,0,1,1,5.047-5.048A5.053,5.053,0,0,1,9332.464,372.792Z" transform="translate(-8580.675 -334.855)" fill="#fff"/>
    <path id="Path_403" data-name="Path 403" d="M9332.464,604.864a2.522,2.522,0,1,0,2.524,2.522A2.524,2.524,0,0,0,9332.464,604.864Zm0,7.568a5.046,5.046,0,1,1,5.047-5.046A5.053,5.053,0,0,1,9332.464,612.432Z" transform="translate(-8580.675 -555.994)" fill="#fff"/>
    <path id="Path_404" data-name="Path 404" d="M9211.206,436.245l-1.336-2.138,10.09-6.307,1.337,2.139Z" transform="translate(-8472.503 -394.929)" fill="#fff"/>
    <path id="Path_405" data-name="Path 405" d="M9219.96,566.976l-10.09-6.308,1.336-2.139,10.091,6.307Z" transform="translate(-8472.503 -515.567)" fill="#fff"/>
    <path id="Path_406" data-name="Path 406" d="M7621.557,5192.848l-5.866-25.607a55.955,55.955,0,0,0-21.941,10.416l16.119,20.74A29.8,29.8,0,0,1,7621.557,5192.848Z" transform="translate(-6985.398 -4760.997)" fill="#c3d80e"/>
    <path id="Path_407" data-name="Path 407" d="M8127.1,6188.474l5.87,25.607a56.015,56.015,0,0,0,21.928-10.414l-16.12-20.738A29.794,29.794,0,0,1,8127.1,6188.474Z" transform="translate(-7476.019 -5696.05)" fill="#474ec9"/>
    <path id="Path_408" data-name="Path 408" d="M7424.276,5322.9l-16.12-20.741a56.453,56.453,0,0,0-15.526,18.729l23.38,11.983a30.009,30.009,0,0,1,8.268-9.972Z" transform="translate(-6800.302 -4885.31)" fill="#9fc400"/>
    <path id="Path_409" data-name="Path 409" d="M8286.619,6053.75a30.051,30.051,0,0,1-8.271,9.974l16.121,20.737A56.408,56.408,0,0,0,8310,6065.734Z" transform="translate(-7615.053 -5576.845)" fill="#6e57da"/>
    <path id="Path_410" data-name="Path 410" d="M7342.619,5556.742l-23.38-11.983a55.881,55.881,0,0,0-6.139,23.537l26.247.981a29.736,29.736,0,0,1,3.271-12.536Z" transform="translate(-6727.192 -5108.924)" fill="#4db544"/>
    <path id="Path_411" data-name="Path 411" d="M8385.459,5903.888l23.377,11.984a55.892,55.892,0,0,0,6.141-23.538l-26.247-.983A29.774,29.774,0,0,1,8385.459,5903.888Z" transform="translate(-7713.637 -5426.983)" fill="#cc5073"/>
    <path id="Path_412" data-name="Path 412" d="M7338.671,5851.749c0-.375.016-.746.03-1.117l-26.247-.982c-.028.7-.054,1.4-.054,2.1a56.054,56.054,0,0,0,4.4,21.84l24.216-10.208a29.869,29.869,0,0,1-2.344-11.632Z" transform="translate(-6726.569 -5388.5)" fill="#17d0b4"/>
    <path id="Path_413" data-name="Path 413" d="M8400.184,5615.845c0,.25-.016.5-.021.747l26.258.654c.01-.468.035-.932.035-1.4a56.024,56.024,0,0,0-4.4-21.836l-24.215,10.208A29.85,29.85,0,0,1,8400.184,5615.845Z" transform="translate(-7725.047 -5154.321)" fill-rule="evenodd" fill="url(#linear-gradient)"/>
    <path id="Path_414" data-name="Path 414" d="M8427.829,5886.9l26.25.982c.006-.233.008-.467.017-.7l-26.257-.656C8427.836,5886.645,8427.833,5886.77,8427.829,5886.9Z" transform="translate(-7752.697 -5422.525)" fill="#cc5073"/>
    <path id="Path_415" data-name="Path 415" d="M8427.829,5886.9l26.25.982c.006-.233.008-.467.017-.7l-26.257-.656C8427.836,5886.645,8427.833,5886.77,8427.829,5886.9Z" transform="translate(-7752.697 -5422.525)" fill-rule="evenodd" fill="url(#linear-gradient-2)"/>
    <path id="Path_416" data-name="Path 416" d="M7890.512,5175.071a29.917,29.917,0,0,1,8.466,1.221l7.431-25.2a56.083,56.083,0,0,0-28.44-.87l5.864,25.606a29.961,29.961,0,0,1,6.68-.758Z" transform="translate(-7246.831 -4744.057)" fill="#ffcf33"/>
    <path id="Path_417" data-name="Path 417" d="M7850.435,6250a29.879,29.879,0,0,1-8.464-1.221l-7.432,25.2a56.135,56.135,0,0,0,28.458.869l-5.871-25.607A29.917,29.917,0,0,1,7850.435,6250Z" transform="translate(-7206.881 -5756.818)" fill="#4777e6"/>
    <path id="Path_418" data-name="Path 418" d="M7393.624,6027.511l-24.214,10.206a56.3,56.3,0,0,0,14.093,19.834l17.627-19.478a30.033,30.033,0,0,1-7.506-10.563Z" transform="translate(-6778.94 -5552.631)" fill="#4eb3d7"/>
    <path id="Path_419" data-name="Path 419" d="M8308.126,5367.1l24.214-10.208a56.3,56.3,0,0,0-14.091-19.836l-17.628,19.478A30.046,30.046,0,0,1,8308.126,5367.1Z" transform="translate(-7635.54 -4917.477)" fill="#f58620"/>
    <path id="Path_420" data-name="Path 420" d="M7569.587,6164.349l-17.627,19.479a56.092,56.092,0,0,0,21.815,12.239l7.431-25.2A29.882,29.882,0,0,1,7569.587,6164.349Z" transform="translate(-6946.922 -5678.905)" fill="#4e99ff"/>
    <path id="Path_421" data-name="Path 421" d="M8161.729,5210.238l17.63-19.479a56.142,56.142,0,0,0-21.819-12.24l-7.43,25.2A29.891,29.891,0,0,1,8161.729,5210.238Z" transform="translate(-7497.149 -4771.381)" fill="#ffa813"/>
    <path id="Path_422" data-name="Path 422" d="M9654.648,5885.378a16.73,16.73,0,1,0,.059-23.4A16.55,16.55,0,0,0,9654.648,5885.378Z" transform="translate(-8876.603 -5395.195)" fill="#181863"/>
    <path id="Path_423" data-name="Path 423" d="M9962.225,5890.884a16.73,16.73,0,1,0,.061-23.4A16.556,16.556,0,0,0,9962.225,5890.884Z" transform="translate(-9159.534 -5400.279)" fill="#181863"/>
    <path id="Path_424" data-name="Path 424" d="M9696.029,5439.142a21.124,21.124,0,1,0,.075-29.559A20.9,20.9,0,0,0,9696.029,5439.142Z" transform="translate(-8913.245 -4978.217)" fill="#181863"/>
    <path id="Path_425" data-name="Path 425" d="M9208.129,6489.57s-.342,2.792-13.907,1.5-33.153-6.534-33.153-6.534l31.574.049s12.063.59,15.483,4.981Z" transform="translate(-8426.604 -5974.375)" fill="#e2c59c"/>
    <path id="Path_426" data-name="Path 426" d="M9035.844,6479.841c-6.46-.417-9.447,2.646-12.074,3.488a46.8,46.8,0,0,0-5.285,2.179c1.615-2.664,3.71-2.614,4.814-3.439s.807-.4-1.485-.718c-1.3-.185-3.758,1.979-5.488,3.151a5.326,5.326,0,0,1-2.415,1.044,28.862,28.862,0,0,1,4.083-3.968,33.015,33.015,0,0,1,6.807-4.045c1.407-.451,5.743-.325,8.8.286C9037.043,6478.5,9040.5,6480.134,9035.844,6479.841Z" transform="translate(-8291.885 -5967.661)" fill="#e2c59c"/>
    <path id="Path_427" data-name="Path 427" d="M9048.386,6482.738s-5.036.938-5.943,1.538c-.633.413-3.336,2.913-3.336,2.913a6.5,6.5,0,0,0,3.008-1.118A56.32,56.32,0,0,1,9048.386,6482.738Z" transform="translate(-8315.467 -5972.714)" fill="#e2c59c"/>
    <path id="Path_428" data-name="Path 428" d="M9530.3,6463.717s12.469,1.558,11.153,8.927c-.748,4.189-3.688,5.479-7.46,4.945-6.989-1-14.891-2.513-14.891-2.513l-2.854-11.756Z" transform="translate(-8753.953 -5954.794)" fill="#007fcf"/>
    <path id="Path_429" data-name="Path 429" d="M9692.549,5948.846l5.686-40.856s.515-8.765,3.642-8.306c4.518.647,11.494,13.935,11.659,16.68.326,5.594-7.769,34.377-8.812,40.112-.714,3.948-4.211-.813-8.225-1.546C9689.018,5953.574,9692.549,5948.846,9692.549,5948.846Z" transform="translate(-8915.466 -5434.657)" fill="#007fcf"/>
    <path id="Path_430" data-name="Path 430" d="M11891.1,5618.953l12.16-21.313,14.218.907,7.048,2.078-15.748,2.333-10.052,19.9Z" transform="translate(-10937.318 -5157.636)" fill="#e9d6b8"/>
    <path id="Path_431" data-name="Path 431" d="M12031.316,5553.909l1.845.608.859,2.391,11.493.488,9.075,2.5a1.743,1.743,0,0,1-.694.891c-1.715.724-8.905.534-8.905.534s.921-1.926.148-2.41-9.666-.714-11.814-.594c-3.7.2-5.665.959-5.464.48.307-.68,3.458-4.89,3.458-4.89Z" transform="translate(-11063.507 -5117.606)" fill="#0095ef"/>
    <path id="Path_432" data-name="Path 432" d="M10802.855,5813.479l33.4,3.788,29.653-52.436,9.975,4.969-30,63.585s-2.288,3.985-12.4,3.115c-9.839-.847-49.645-3.2-54.05-4.844C10768.984,5827.751,10803.91,5822.706,10802.855,5813.479Z" transform="translate(-9909.668 -5310.23)" fill="#d1320b"/>
    <path id="Path_433" data-name="Path 433" d="M9753.3,5558.2a16.73,16.73,0,1,0,.06-23.408,16.55,16.55,0,0,0-.06,23.408Z" transform="translate(-8967.353 -5094.939)" fill="#181863"/>
    <path id="Path_434" data-name="Path 434" d="M9443.6,5534.123a12.576,12.576,0,0,0,17.785-.149l-2.045-6.429a12.572,12.572,0,0,0-.148-17.785l-3.361-3.31a12.572,12.572,0,0,0-17.787.145l-2.2,2.237a12.58,12.58,0,0,0,.137,17.79l7.621,7.5Z" transform="translate(-8676.507 -5070.14)" fill="#181863"/>
    <path id="Path_435" data-name="Path 435" d="M9453.713,5693.57a25.836,25.836,0,0,0,2.742,2.274c6.644,4.758,14.458,5.562,18.767,2.26a37.675,37.675,0,0,0,8.193,5.568c2.972,1.521,7.985,1.225,7.985,1.225,4.656,3.307,7.395,16.61-3.233,21.834-6.379,3.144-7.5-4.361-6.729-9.562.371-2.447.577-5.178-.07-6.251-2.274-3.74-3.942-3.775-6.806-4.311a10.254,10.254,0,0,0-7.63,2.8,1.474,1.474,0,0,1-1.089.429,8.745,8.745,0,0,1-2.143-1.559l-7.4-7.278A8.931,8.931,0,0,1,9453.713,5693.57Z" transform="translate(-8695.884 -5244.471)" fill="#e9d6b8"/>
    <path id="Path_436" data-name="Path 436" d="M9950.008,5621.7a17.473,17.473,0,1,0,3.766-24.16,17.294,17.294,0,0,0-3.766,24.16Z" transform="translate(-9149.604 -5152.607)" fill="#181863"/>
    <path id="Path_437" data-name="Path 437" d="M11544.8,5410.926l.408-17.022,3.451-4.1,9.188-5.394,6.864,1.19-12,9.082-.758,17.856Z" transform="translate(-10617.75 -4961.132)" fill="#e9d6b8"/>
    <path id="Path_438" data-name="Path 438" d="M11545.188,5363.2l3.09-2.24.961.745,8.52-5.491s7.775-2.095,9.3-.336c.485.57-.761,1.531-2.483,2.831a15.464,15.464,0,0,1-2.21,1.439s-.363-1.329-3.452-1.817c-.983-.152-7.06,3.933-9.154,4.994-3.757,1.91-5.231,4.56-5.421,4.313C11543.833,5366.993,11545.188,5363.2,11545.188,5363.2Z" transform="translate(-10617.223 -4934.42)" fill="#0095ef"/>
    <path id="Path_439" data-name="Path 439" d="M10368.546,5727.11l7.549-.31,61.249-4.357s5.5,1.651,8.924-7.035c4.879-12.365-2.075-74.049-2.075-74.049l-9.071.207-4.47,58.236s-42.993-13.739-52.745-10.346c-11.39,3.958-17.946,9.366-32.314,24.3-6.33,6.578,2.056,12.267,2.056,12.267l20.9,1.083Z" transform="translate(-9508.944 -5196.292)" fill="#ff3d0d"/>
    <path id="Path_440" data-name="Path 440" d="M9773.113,5849.974s10.35-12.938,18.974-5.174,38.781,31.968,47.909,34.767l2.088,33.969c-24.9,1.646-45.333-11.074-47.028-13.619-5.484-8.228-25.393-39.593-21.94-49.942Z" transform="translate(-8988.499 -5381.736)" fill="#0095ef"/>
    <path id="Path_441" data-name="Path 441" d="M9876.771,6182.346c-2.429-3.331-7.446-10.458-12.309-18.444-6.138-10.087-15.509-8.407-10.482,1.488a267.521,267.521,0,0,0,14.746,25.01c1.7,2.544,18.231,15.264,43.131,13.619l-2.431-3.443C9891.621,6198.88,9878.348,6184.5,9876.771,6182.346Z" transform="translate(-9062.257 -5672.221)" fill="#007fcf"/>
    <path id="Path_442" data-name="Path 442" d="M9316.046,6590.03s3.748,4.016-13.2,2.308c-12.033-1.226-11.754-.386-41.429-8.049l39.421.637s10.9.032,15.205,5.106Z" transform="translate(-8518.674 -6066.425)" fill="#e9d6b8"/>
    <path id="Path_443" data-name="Path 443" d="M9105.44,6579.508c-8.082-.592-11.787,2.839-15.065,3.746a59.126,59.126,0,0,0-6.589,2.382c2-3.006,4.619-2.91,6-3.832s1-.437-1.867-.843c-1.625-.233-4.674,2.188-6.848,3.481a6.807,6.807,0,0,1-3,1.149,33.263,33.263,0,0,1,5.073-4.436,41.127,41.127,0,0,1,8.479-4.472c1.766-.492,7.176-.263,11,.485C9106.929,6578.012,9111.258,6579.937,9105.44,6579.508Z" transform="translate(-8350.741 -6059.167)" fill="#e9d6b8"/>
    <path id="Path_444" data-name="Path 444" d="M9120.875,6582.029s-6.271.978-7.409,1.642c-.792.462-4.147,3.249-4.147,3.249a8.5,8.5,0,0,0,3.745-1.22c1.412-1.043,7.81-3.671,7.81-3.671Z" transform="translate(-8379.996 -6064.34)" fill="#e2c59c"/>
    <path id="Path_445" data-name="Path 445" d="M9648.193,5980l-5.6-46.184s3.605-4.556,6.787-2.965c3.391,1.693,10.173,6.358,10.173,6.358s5.673,16.034,7.21,30.1c2.542,23.319,1.31,23.836-7.21,25.862-8.9,2.121-25.043-.046-25.043-.046l-3.579-13.2Z" transform="translate(-8859.097 -5463.123)" fill="#0095ef"/>
    <path id="Path_446" data-name="Path 446" d="M8613.485,6693.072l.03-.058-.03-1.785h-73.856v1.843l.188.33c.948,1.545,2.649,1.825,4.6,1.825h64.271c1.953,0,3.652-.28,4.605-1.825l.19-.33Z" transform="translate(-7854.232 -6165.109)" fill="#d1dbea"/>
    <path id="Path_447" data-name="Path 447" d="M9265.71,6701.733v.05l.182.267a2.991,2.991,0,0,0,1.081.911H9278.2c1.881,0,3.517-.225,4.43-1.475l.178-.274.033-.043-.018-.879H9265.71Z" transform="translate(-8523.714 -6173.47)" fill="#b6c2c9"/>
    <path id="Path_448" data-name="Path 448" d="M8658.569,6697.832h36.9v-1.263h-36.9Z" transform="translate(-7964.669 -6170.036)" fill="#b6c2c9"/>
    <path id="Path_449" data-name="Path 449" d="M8484.462,6235.884l-9.573-36.291a2.411,2.411,0,0,0-2.188-1.734h-51.82a1.29,1.29,0,0,0-1.273,1.734l9.575,36.291h55.282Z" transform="translate(-7744.041 -5709.828)" fill="#cdd5d7"/>
    <path id="Path_450" data-name="Path 450" d="M8799.254,6403.972a2.5,2.5,0,0,1-2.472,3.354,4.673,4.673,0,0,1-4.239-3.354,2.5,2.5,0,0,1,2.472-3.36A4.67,4.67,0,0,1,8799.254,6403.972Z" transform="translate(-8088.599 -5896.927)" fill="#b6c2c9"/>
  </g>
</svg>
