<svg xmlns="http://www.w3.org/2000/svg" width="47.194" height="47.194" viewBox="0 0 47.194 47.194">
    <defs>
        <style>
            .cls-1{fill:#475993}
        </style>
    </defs>
    <path id="facebook" d="M40.836 0H6.362A6.36 6.36 0 0 0 0 6.36v34.475a6.359 6.359 0 0 0 6.36 6.36h17l.029-16.865h-4.377a1.034 1.034 0 0 1-1.034-1.03l-.021-5.436a1.034 1.034 0 0 1 1.034-1.038h4.373v-5.253c0-6.1 3.723-9.415 9.161-9.415h4.462a1.034 1.034 0 0 1 1.034 1.034v4.584a1.034 1.034 0 0 1-1.033 1.034h-2.739c-2.957 0-3.53 1.405-3.53 3.468v4.547h6.5a1.034 1.034 0 0 1 1.027 1.156l-.646 5.437a1.034 1.034 0 0 1-1.027.912h-5.824l-.029 16.864h10.117a6.359 6.359 0 0 0 6.363-6.359V6.36A6.36 6.36 0 0 0 40.836 0z" class="cls-1" transform="translate(-.002)"/>
</svg>
