<svg xmlns="http://www.w3.org/2000/svg" width="47.194" height="47.194" viewBox="0 0 47.194 47.194">
    <defs>
        <style>
            .cls-1{fill:#0077b7}
        </style>
    </defs>
    <path id="linkedin" d="M42.925 0H4.269A4.269 4.269 0 0 0 0 4.269v38.656a4.269 4.269 0 0 0 4.269 4.269h38.656a4.269 4.269 0 0 0 4.269-4.269V4.269A4.269 4.269 0 0 0 42.925 0zM14.6 40.751a1.242 1.242 0 0 1-1.242 1.242H8.073a1.242 1.242 0 0 1-1.242-1.242V18.582a1.242 1.242 0 0 1 1.242-1.242h5.288a1.242 1.242 0 0 1 1.239 1.242zm-3.887-25.5a5.024 5.024 0 1 1 5.024-5.024 5.024 5.024 0 0 1-5.02 5.022zm31.524 25.6a1.142 1.142 0 0 1-1.137 1.142h-5.676a1.142 1.142 0 0 1-1.142-1.142v-10.4c0-1.551.455-6.8-4.054-6.8-3.5 0-4.207 3.591-4.349 5.2v12a1.142 1.142 0 0 1-1.142 1.142h-5.489a1.142 1.142 0 0 1-1.142-1.142V18.482a1.142 1.142 0 0 1 1.142-1.142h5.489a1.142 1.142 0 0 1 1.142 1.142v1.934c1.3-1.946 3.224-3.448 7.328-3.448 9.087 0 9.035 8.49 9.035 13.154v10.729z" class="cls-1"/>
</svg>
