<svg xmlns="http://www.w3.org/2000/svg" width="31.664" height="31.664" viewBox="0 0 31.664 31.664">
    <defs>
        <style>
            .cls-1{fill:#50abf1}.cls-2{fill:#fff}
        </style>
    </defs>
    <g id="twitter_1_" data-name="twitter (1)">
        <rect id="Rectangle_21" width="31.664" height="31.664" class="cls-1" data-name="Rectangle 21" rx="5"/>
        <path id="Path_462" d="M60.359 112.84a13.632 13.632 0 0 0 20.917-11.521q0-.282-.011-.56a10.712 10.712 0 0 0 2.369-2.432 11.056 11.056 0 0 1-2.706.7h-.008.007c.123-.082 1.848-1.256 2.081-2.655a16.605 16.605 0 0 1-2.322.968c-.224.074-.459.148-.7.216a4.783 4.783 0 0 0-8.15 4.35 14.4 14.4 0 0 1-9.817-4.962s-2.286 3.121 1.362 6.33a4.914 4.914 0 0 1-2.066-.616 4.545 4.545 0 0 0 3.78 4.747 4.376 4.376 0 0 1-2.11.088 4.715 4.715 0 0 0 4.4 3.34 9.186 9.186 0 0 1-7.023 2.007z" class="cls-2" data-name="Path 462" transform="translate(-56.164 -89.368)"/>
    </g>
</svg>
