<svg xmlns="http://www.w3.org/2000/svg" id="twitter_1_" width="47.194" height="47.194" data-name="twitter (1)" viewBox="0 0 47.194 47.194">
    <defs>
        <style>
            .cls-1{fill:#50abf1}.cls-2{fill:#fff}
        </style>
    </defs>
    <rect id="Rectangle_21" width="47.194" height="47.194" class="cls-1" data-name="Rectangle 21" rx="5"/>
    <path id="Path_462" d="M60.36 121.079a20.318 20.318 0 0 0 31.176-17.171q0-.42-.017-.835c.406-.319 2.916-2.331 3.531-3.625a16.479 16.479 0 0 1-4.033 1.047H91l.011-.007c.184-.123 2.754-1.872 3.1-3.957a24.749 24.749 0 0 1-3.46 1.443c-.334.111-.684.22-1.045.321a7.129 7.129 0 0 0-12.148 6.484 21.467 21.467 0 0 1-14.632-7.4s-3.407 4.651 2.03 9.435a7.325 7.325 0 0 1-3.079-.918 6.775 6.775 0 0 0 5.634 7.076 6.523 6.523 0 0 1-3.145.132 7.027 7.027 0 0 0 6.552 4.979 13.692 13.692 0 0 1-10.468 2.991z" class="cls-2" data-name="Path 462" transform="translate(-54.107 -86.095)"/>
</svg>
